Kablammov0.12-D.ufo
<glyph name="quotedbl" format="2">
  <advance width="391"/>
  <unicode hex="0022"/>
  <outline>
    <contour>
      <point x="57" y="420" type="curve" smooth="yes"/>
      <point x="60" y="395"/>
      <point x="73" y="370"/>
      <point x="107" y="370" type="curve" smooth="yes"/>
      <point x="136" y="370"/>
      <point x="154" y="390"/>
      <point x="156" y="417" type="curve" smooth="yes"/>
      <point x="159" y="474"/>
      <point x="164" y="556"/>
      <point x="166" y="627" type="curve" smooth="yes"/>
      <point x="168" y="690"/>
      <point x="148" y="716"/>
      <point x="102" y="716" type="curve" smooth="yes"/>
      <point x="66" y="716"/>
      <point x="40" y="691"/>
      <point x="42" y="644" type="curve" smooth="yes"/>
      <point x="42" y="630"/>
      <point x="43" y="618"/>
      <point x="44" y="609" type="curve"/>
      <point x="111" y="607"/>
      <point x="124" y="598"/>
      <point x="124" y="574" type="curve" smooth="yes"/>
      <point x="124" y="545"/>
      <point x="107" y="543"/>
      <point x="48" y="542" type="curve"/>
      <point x="50" y="498"/>
      <point x="54" y="450"/>
    </contour>
    <contour>
      <point x="227" y="428" type="curve" smooth="yes"/>
      <point x="229" y="369"/>
      <point x="256" y="359"/>
      <point x="284" y="359" type="curve" smooth="yes"/>
      <point x="310" y="359"/>
      <point x="337" y="371"/>
      <point x="340" y="431" type="curve" smooth="yes"/>
      <point x="342" y="487"/>
      <point x="344" y="579"/>
      <point x="344" y="647" type="curve" smooth="yes"/>
      <point x="344" y="704"/>
      <point x="321" y="722"/>
      <point x="285" y="722" type="curve" smooth="yes"/>
      <point x="247" y="722"/>
      <point x="226" y="701"/>
      <point x="225" y="651" type="curve" smooth="yes"/>
      <point x="225" y="644"/>
      <point x="225" y="637"/>
      <point x="225" y="630" type="curve" smooth="yes"/>
      <point x="225" y="621"/>
      <point x="225" y="611"/>
      <point x="225" y="601" type="curve" smooth="yes"/>
      <point x="225" y="591"/>
      <point x="225" y="580"/>
      <point x="225" y="569" type="curve" smooth="yes"/>
      <point x="225" y="560"/>
      <point x="225" y="551"/>
      <point x="225" y="542" type="curve"/>
      <point x="287" y="538"/>
      <point x="298" y="530"/>
      <point x="299" y="510" type="curve" smooth="yes"/>
      <point x="300" y="488"/>
      <point x="288" y="479"/>
      <point x="226" y="478" type="curve"/>
      <point x="226" y="461"/>
      <point x="227" y="444"/>
    </contour>
  </outline>
</glyph>
<glyph name="ampersand" format="2">
  <advance width="557"/>
  <unicode hex="0026"/>
  <outline>
    <contour>
      <point x="221" y="-32" type="curve" smooth="yes"/>
      <point x="396" y="-32"/>
      <point x="456" y="54"/>
      <point x="458" y="155" type="curve" smooth="yes"/>
      <point x="459" y="215"/>
      <point x="432" y="291"/>
      <point x="420" y="327" type="curve" smooth="yes"/>
      <point x="414" y="347"/>
      <point x="425" y="356"/>
      <point x="444" y="358" type="curve" smooth="yes"/>
      <point x="486" y="364"/>
      <point x="518" y="374"/>
      <point x="515" y="407" type="curve" smooth="yes"/>
      <point x="512" y="433"/>
      <point x="502" y="452"/>
      <point x="459" y="452" type="curve" smooth="yes"/>
      <point x="437" y="452"/>
      <point x="402" y="448"/>
      <point x="363" y="442" type="curve"/>
      <point x="363" y="442"/>
      <point x="357" y="441"/>
      <point x="337" y="439" type="curve" smooth="yes"/>
      <point x="320" y="437"/>
      <point x="308" y="435"/>
      <point x="308" y="435" type="curve"/>
      <point x="296" y="433"/>
      <point x="284" y="432"/>
      <point x="272" y="430" type="curve"/>
      <point x="272" y="430"/>
      <point x="265" y="429"/>
      <point x="247" y="427" type="curve" smooth="yes"/>
      <point x="232" y="426"/>
      <point x="220" y="425"/>
      <point x="220" y="425" type="curve"/>
      <point x="207" y="424"/>
      <point x="195" y="423"/>
      <point x="185" y="423" type="curve" smooth="yes"/>
      <point x="127" y="423"/>
      <point x="100" y="478"/>
      <point x="100" y="518" type="curve" smooth="yes"/>
      <point x="100" y="588"/>
      <point x="155" y="634"/>
      <point x="285" y="634" type="curve" smooth="yes"/>
      <point x="397" y="634"/>
      <point x="416" y="613"/>
      <point x="463" y="613" type="curve" smooth="yes"/>
      <point x="487" y="613"/>
      <point x="499" y="624"/>
      <point x="499" y="646" type="curve" smooth="yes"/>
      <point x="499" y="682"/>
      <point x="417" y="713"/>
      <point x="283" y="713" type="curve" smooth="yes"/>
      <point x="136" y="713"/>
      <point x="27" y="652"/>
      <point x="27" y="519" type="curve" smooth="yes"/>
      <point x="27" y="451"/>
      <point x="50" y="404"/>
      <point x="106" y="373" type="curve" smooth="yes"/>
      <point x="116" y="368"/>
      <point x="117" y="358"/>
      <point x="106" y="351" type="curve" smooth="yes"/>
      <point x="47" y="314"/>
      <point x="26" y="252"/>
      <point x="26" y="164" type="curve" smooth="yes"/>
      <point x="26" y="44"/>
      <point x="98" y="-32"/>
    </contour>
    <contour>
      <point x="194" y="143" type="curve" smooth="yes"/>
      <point x="149" y="143"/>
      <point x="118" y="179"/>
      <point x="118" y="223" type="curve" smooth="yes"/>
      <point x="118" y="292"/>
      <point x="149" y="328"/>
      <point x="210" y="338" type="curve" smooth="yes"/>
      <point x="246" y="343"/>
      <point x="284" y="349"/>
      <point x="307" y="348" type="curve" smooth="yes"/>
      <point x="331" y="347"/>
      <point x="343" y="340"/>
      <point x="347" y="320" type="curve" smooth="yes"/>
      <point x="349" y="308"/>
      <point x="354" y="281"/>
      <point x="355" y="264" type="curve" smooth="yes"/>
      <point x="357" y="187"/>
      <point x="294" y="143"/>
    </contour>
    <contour>
      <point x="214" y="24" type="curve" smooth="yes"/>
      <point x="196" y="24"/>
      <point x="182" y="38"/>
      <point x="182" y="56" type="curve" smooth="yes"/>
      <point x="182" y="73"/>
      <point x="196" y="87"/>
      <point x="214" y="87" type="curve" smooth="yes"/>
      <point x="231" y="87"/>
      <point x="245" y="73"/>
      <point x="245" y="56" type="curve" smooth="yes"/>
      <point x="245" y="38"/>
      <point x="231" y="24"/>
    </contour>
    <contour>
      <point x="310" y="40" type="curve" smooth="yes"/>
      <point x="289" y="40"/>
      <point x="272" y="57"/>
      <point x="272" y="78" type="curve" smooth="yes"/>
      <point x="272" y="98"/>
      <point x="289" y="114"/>
      <point x="310" y="114" type="curve" smooth="yes"/>
      <point x="330" y="114"/>
      <point x="346" y="98"/>
      <point x="346" y="78" type="curve" smooth="yes"/>
      <point x="346" y="57"/>
      <point x="330" y="40"/>
    </contour>
    <contour>
      <point x="386" y="110" type="curve" smooth="yes"/>
      <point x="368" y="110"/>
      <point x="354" y="124"/>
      <point x="354" y="142" type="curve" smooth="yes"/>
      <point x="354" y="159"/>
      <point x="368" y="173"/>
      <point x="386" y="173" type="curve" smooth="yes"/>
      <point x="403" y="173"/>
      <point x="417" y="159"/>
      <point x="417" y="142" type="curve" smooth="yes"/>
      <point x="417" y="124"/>
      <point x="403" y="110"/>
    </contour>
    <contour>
      <point x="214" y="739" type="curve" smooth="yes"/>
      <point x="206" y="778"/>
      <point x="193" y="797"/>
      <point x="164" y="791" type="curve" smooth="yes"/>
      <point x="140" y="786"/>
      <point x="134" y="763"/>
      <point x="143" y="726" type="curve" smooth="yes"/>
      <point x="158" y="669"/>
      <point x="179" y="595"/>
      <point x="197" y="537" type="curve" smooth="yes"/>
      <point x="205" y="510"/>
      <point x="213" y="496"/>
      <point x="233" y="499" type="curve" smooth="yes"/>
      <point x="252" y="503"/>
      <point x="254" y="518"/>
      <point x="249" y="549" type="curve" smooth="yes"/>
      <point x="239" y="615"/>
      <point x="225" y="688"/>
    </contour>
    <contour>
      <point x="413" y="760" type="curve" smooth="yes"/>
      <point x="421" y="802"/>
      <point x="418" y="820"/>
      <point x="398" y="824" type="curve" smooth="yes"/>
      <point x="379" y="829"/>
      <point x="366" y="816"/>
      <point x="355" y="777" type="curve" smooth="yes"/>
      <point x="338" y="718"/>
      <point x="323" y="665"/>
      <point x="310" y="608" type="curve" smooth="yes"/>
      <point x="303" y="578"/>
      <point x="300" y="551"/>
      <point x="326" y="544" type="curve" smooth="yes"/>
      <point x="350" y="537"/>
      <point x="364" y="555"/>
      <point x="373" y="594" type="curve" smooth="yes"/>
      <point x="386" y="648"/>
      <point x="404" y="708"/>
    </contour>
  </outline>
</glyph>
<glyph name="quotesingle" format="2">
  <advance width="203"/>
  <unicode hex="0027"/>
  <outline>
    <contour>
      <point x="62" y="449" type="curve" smooth="yes"/>
      <point x="65" y="424"/>
      <point x="79" y="406"/>
      <point x="104" y="406" type="curve" smooth="yes"/>
      <point x="128" y="406"/>
      <point x="146" y="417"/>
      <point x="149" y="453" type="curve" smooth="yes"/>
      <point x="154" y="501"/>
      <point x="161" y="587"/>
      <point x="164" y="653" type="curve" smooth="yes"/>
      <point x="167" y="715"/>
      <point x="150" y="744"/>
      <point x="104" y="744" type="curve" smooth="yes"/>
      <point x="61" y="744"/>
      <point x="42" y="714"/>
      <point x="45" y="661" type="curve" smooth="yes"/>
      <point x="45" y="653"/>
      <point x="46" y="644"/>
      <point x="47" y="636" type="curve"/>
      <point x="47" y="636"/>
      <point x="48" y="627"/>
      <point x="50" y="596" type="curve" smooth="yes"/>
      <point x="52" y="568"/>
      <point x="53" y="554"/>
      <point x="53" y="554" type="curve"/>
      <point x="56" y="519"/>
      <point x="59" y="483"/>
    </contour>
  </outline>
</glyph>
<glyph name="plus" format="2">
  <advance width="413"/>
  <unicode hex="002B"/>
  <outline>
    <contour>
      <point x="238" y="167" type="curve" smooth="yes"/>
      <point x="245" y="266"/>
      <point x="249" y="361"/>
      <point x="251" y="441" type="curve" smooth="yes"/>
      <point x="253" y="487"/>
      <point x="234" y="509"/>
      <point x="205" y="509" type="curve" smooth="yes"/>
      <point x="178" y="509"/>
      <point x="161" y="488"/>
      <point x="159" y="443" type="curve" smooth="yes"/>
      <point x="156" y="362"/>
      <point x="155" y="270"/>
      <point x="158" y="168" type="curve" smooth="yes"/>
      <point x="159" y="130"/>
      <point x="173" y="115"/>
      <point x="193" y="114" type="curve" smooth="yes"/>
      <point x="215" y="113"/>
      <point x="235" y="126"/>
    </contour>
    <contour>
      <point x="105" y="268" type="curve" smooth="yes"/>
      <point x="168" y="272"/>
      <point x="247" y="279"/>
      <point x="308" y="286" type="curve" smooth="yes"/>
      <point x="361" y="292"/>
      <point x="371" y="312"/>
      <point x="367" y="337" type="curve" smooth="yes"/>
      <point x="363" y="359"/>
      <point x="348" y="368"/>
      <point x="306" y="365" type="curve" smooth="yes"/>
      <point x="247" y="361"/>
      <point x="156" y="353"/>
      <point x="97" y="347" type="curve" smooth="yes"/>
      <point x="50" y="342"/>
      <point x="38" y="324"/>
      <point x="40" y="302" type="curve" smooth="yes"/>
      <point x="42" y="278"/>
      <point x="60" y="265"/>
    </contour>
  </outline>
</glyph>
<glyph name="period" format="2">
  <advance width="276"/>
  <unicode hex="002E"/>
  <outline>
    <contour>
      <point x="136" y="-27" type="curve" smooth="yes"/>
      <point x="192" y="-27"/>
      <point x="225" y="-2"/>
      <point x="225" y="50" type="curve" smooth="yes"/>
      <point x="225" y="97"/>
      <point x="195" y="130"/>
      <point x="141" y="130" type="curve" smooth="yes"/>
      <point x="89" y="130"/>
      <point x="50" y="98"/>
      <point x="50" y="52" type="curve" smooth="yes"/>
      <point x="50" y="7"/>
      <point x="84" y="-27"/>
    </contour>
    <contour>
      <point x="150" y="71" type="curve" smooth="yes"/>
      <point x="150" y="71"/>
      <point x="150" y="71"/>
      <point x="150" y="71" type="curve" smooth="yes"/>
      <point x="150" y="71"/>
      <point x="150" y="71"/>
      <point x="150" y="71" type="curve" smooth="yes"/>
      <point x="150" y="71"/>
      <point x="150" y="71"/>
      <point x="150" y="71" type="curve" smooth="yes"/>
      <point x="150" y="71"/>
      <point x="150" y="71"/>
    </contour>
  </outline>
</glyph>
<glyph name="four" format="2">
  <advance width="587"/>
  <unicode hex="0034"/>
  <outline>
    <contour>
      <point x="370" y="410" type="curve" smooth="yes"/>
      <point x="349" y="203" type="line" smooth="yes"/>
      <point x="346" y="173"/>
      <point x="337" y="164"/>
      <point x="305" y="161" type="curve" smooth="yes"/>
      <point x="250" y="155" type="line" smooth="yes"/>
      <point x="148" y="144"/>
      <point x="147" y="-9"/>
      <point x="239" y="-10" type="curve" smooth="yes"/>
      <point x="493" y="-12" type="line" smooth="yes"/>
      <point x="589" y="-13"/>
      <point x="589" y="134"/>
      <point x="506" y="147" type="curve" smooth="yes"/>
      <point x="462" y="154" type="line" smooth="yes"/>
      <point x="445" y="157"/>
      <point x="441" y="168"/>
      <point x="442" y="193" type="curve" smooth="yes"/>
      <point x="453" y="403" type="line" smooth="yes"/>
      <point x="456" y="469"/>
      <point x="376" y="473"/>
    </contour>
    <contour>
      <point x="128" y="399" type="line" smooth="yes"/>
      <point x="153" y="396"/>
      <point x="155" y="432"/>
      <point x="132" y="434" type="curve" smooth="yes"/>
      <point x="121" y="435" type="line" smooth="yes"/>
      <point x="104" y="437"/>
      <point x="99" y="403"/>
      <point x="120" y="400" type="curve" smooth="yes"/>
    </contour>
    <contour>
      <point x="440" y="655" type="curve" smooth="yes"/>
      <point x="440" y="690"/>
      <point x="406" y="721"/>
      <point x="363" y="715" type="curve" smooth="yes"/>
      <point x="344" y="713"/>
      <point x="324" y="703"/>
      <point x="297" y="673" type="curve" smooth="yes"/>
      <point x="45" y="394" type="line" smooth="yes"/>
      <point x="-17" y="326"/>
      <point x="10" y="239"/>
      <point x="102" y="239" type="curve" smooth="yes"/>
      <point x="537" y="239" type="line" smooth="yes"/>
      <point x="594" y="239"/>
      <point x="594" y="336"/>
      <point x="529" y="332" type="curve" smooth="yes"/>
      <point x="141" y="309" type="line" smooth="yes"/>
      <point x="109" y="307"/>
      <point x="101" y="331"/>
      <point x="129" y="354" type="curve" smooth="yes"/>
      <point x="351" y="537"/>
      <point x="440" y="590"/>
    </contour>
    <contour>
      <point x="234" y="388" type="line" smooth="yes"/>
      <point x="262" y="359"/>
      <point x="314" y="396"/>
      <point x="287" y="427" type="curve" smooth="yes"/>
      <point x="144" y="587" type="line" smooth="yes"/>
      <point x="108" y="628"/>
      <point x="51" y="574"/>
      <point x="83" y="542" type="curve" smooth="yes"/>
    </contour>
    <contour>
      <point x="461" y="-11" type="curve"/>
      <point x="403" y="-12" type="line"/>
      <point x="408" y="72"/>
      <point x="422" y="100"/>
      <point x="451" y="97" type="curve" smooth="yes"/>
      <point x="482" y="94"/>
      <point x="483" y="65"/>
    </contour>
    <contour>
      <point x="343" y="-10" type="curve"/>
      <point x="280" y="-10" type="line"/>
      <point x="265" y="64"/>
      <point x="279" y="85"/>
      <point x="301" y="86" type="curve" smooth="yes"/>
      <point x="323" y="87"/>
      <point x="337" y="74"/>
    </contour>
    <contour>
      <point x="513" y="286" type="curve" smooth="yes"/>
      <point x="513" y="286"/>
      <point x="513" y="286"/>
      <point x="513" y="286" type="curve" smooth="yes"/>
      <point x="513" y="286"/>
      <point x="513" y="286"/>
      <point x="513" y="286" type="curve" smooth="yes"/>
      <point x="513" y="286"/>
      <point x="513" y="286"/>
      <point x="513" y="286" type="curve" smooth="yes"/>
      <point x="513" y="286"/>
      <point x="513" y="286"/>
    </contour>
    <contour>
      <point x="247" y="616" type="line"/>
      <point x="247" y="616"/>
      <point x="244" y="614"/>
      <point x="222" y="590" type="curve" smooth="yes"/>
      <point x="196" y="562"/>
      <point x="193" y="558"/>
      <point x="193" y="558" type="curve"/>
    </contour>
    <contour>
      <point x="134" y="491" type="line"/>
      <point x="134" y="491"/>
      <point x="131" y="490"/>
      <point x="109" y="465" type="curve" smooth="yes"/>
      <point x="83" y="436"/>
      <point x="80" y="433"/>
      <point x="80" y="433" type="curve"/>
    </contour>
    <contour>
      <point x="411" y="386" type="curve" smooth="yes"/>
      <point x="422" y="386"/>
      <point x="431" y="394"/>
      <point x="431" y="406" type="curve" smooth="yes"/>
      <point x="431" y="417"/>
      <point x="422" y="426"/>
      <point x="411" y="426" type="curve" smooth="yes"/>
      <point x="399" y="426"/>
      <point x="391" y="417"/>
      <point x="391" y="406" type="curve" smooth="yes"/>
      <point x="391" y="394"/>
      <point x="399" y="386"/>
    </contour>
  </outline>
</glyph>
<glyph name="seven" format="2">
  <advance width="472"/>
  <unicode hex="0037"/>
  <outline>
    <contour>
      <point x="343" y="112" type="curve" smooth="yes"/>
      <point x="447" y="513" type="line" smooth="yes"/>
      <point x="473" y="614"/>
      <point x="438" y="674"/>
      <point x="329" y="679" type="curve" smooth="yes"/>
      <point x="96" y="690" type="line" smooth="yes"/>
      <point x="-15" y="695"/>
      <point x="-19" y="480"/>
      <point x="115" y="516" type="curve" smooth="yes"/>
      <point x="321" y="571" type="line" smooth="yes"/>
      <point x="368" y="584"/>
      <point x="395" y="548"/>
      <point x="342" y="480" type="curve" smooth="yes"/>
      <point x="140" y="222" type="line" smooth="yes"/>
      <point x="-25" y="12"/>
      <point x="280" y="-130"/>
    </contour>
    <contour>
      <point x="338" y="230" type="line"/>
      <point x="342" y="228" type="line" smooth="yes"/>
      <point x="364" y="217"/>
      <point x="367" y="251"/>
      <point x="347" y="251" type="curve" smooth="yes"/>
      <point x="343" y="251" type="line"/>
    </contour>
    <contour>
      <point x="333" y="262" type="line"/>
      <point x="336" y="261" type="line" smooth="yes"/>
      <point x="375" y="248"/>
      <point x="394" y="312"/>
      <point x="364" y="327" type="curve" smooth="yes"/>
      <point x="360" y="329" type="line"/>
    </contour>
    <contour>
      <point x="174" y="532" type="curve"/>
      <point x="117" y="517" type="line"/>
      <point x="95" y="572"/>
      <point x="92" y="607"/>
      <point x="123" y="615" type="curve" smooth="yes"/>
      <point x="152" y="623"/>
      <point x="164" y="596"/>
    </contour>
    <contour>
      <point x="291" y="563" type="curve"/>
      <point x="233" y="548" type="line"/>
      <point x="219" y="599"/>
      <point x="224" y="619"/>
      <point x="246" y="624" type="curve" smooth="yes"/>
      <point x="270" y="629"/>
      <point x="285" y="611"/>
    </contour>
    <contour>
      <point x="373" y="468" type="line"/>
      <point x="373" y="468" type="line"/>
      <point x="333" y="491"/>
      <point x="299" y="418"/>
      <point x="333" y="401" type="curve"/>
      <point x="333" y="401" type="line"/>
    </contour>
    <contour>
      <point x="336" y="394" type="curve" smooth="yes"/>
      <point x="355" y="394"/>
      <point x="371" y="377"/>
      <point x="371" y="355" type="curve" smooth="yes"/>
      <point x="371" y="337"/>
      <point x="357" y="325"/>
      <point x="338" y="325" type="curve" smooth="yes"/>
      <point x="317" y="325"/>
      <point x="301" y="339"/>
      <point x="301" y="357" type="curve" smooth="yes"/>
      <point x="301" y="379"/>
      <point x="315" y="394"/>
    </contour>
    <contour>
      <point x="278" y="281" type="curve" smooth="yes"/>
      <point x="303" y="281"/>
      <point x="319" y="265"/>
      <point x="319" y="240" type="curve" smooth="yes"/>
      <point x="319" y="217"/>
      <point x="300" y="203"/>
      <point x="278" y="203" type="curve" smooth="yes"/>
      <point x="253" y="203"/>
      <point x="234" y="216"/>
      <point x="234" y="239" type="curve" smooth="yes"/>
      <point x="234" y="262"/>
      <point x="255" y="281"/>
    </contour>
    <contour>
      <point x="318" y="159" type="line"/>
      <point x="322" y="158" type="line" smooth="yes"/>
      <point x="346" y="152"/>
      <point x="347" y="181"/>
      <point x="327" y="181" type="curve" smooth="yes"/>
      <point x="323" y="181" type="line"/>
    </contour>
    <contour>
      <point x="209" y="160" type="curve" smooth="yes"/>
      <point x="238" y="160"/>
      <point x="267" y="139"/>
      <point x="267" y="108" type="curve" smooth="yes"/>
      <point x="267" y="78"/>
      <point x="241" y="52"/>
      <point x="214" y="52" type="curve" smooth="yes"/>
      <point x="179" y="52"/>
      <point x="161" y="77"/>
      <point x="161" y="107" type="curve" smooth="yes"/>
      <point x="161" y="138"/>
      <point x="178" y="160"/>
    </contour>
    <contour>
      <point x="189" y="269" type="line"/>
      <point x="185" y="269" type="line" smooth="yes"/>
      <point x="169" y="269"/>
      <point x="164" y="256"/>
      <point x="181" y="250" type="curve" smooth="yes"/>
      <point x="184" y="249" type="line"/>
    </contour>
    <contour>
      <point x="229" y="310" type="line"/>
      <point x="224" y="310" type="line" smooth="yes"/>
      <point x="208" y="310"/>
      <point x="203" y="295"/>
      <point x="220" y="291" type="curve" smooth="yes"/>
      <point x="224" y="290" type="line"/>
    </contour>
    <contour>
      <point x="158" y="357" type="curve" smooth="yes"/>
      <point x="191" y="357"/>
      <point x="214" y="390"/>
      <point x="214" y="424" type="curve" smooth="yes"/>
      <point x="214" y="459"/>
      <point x="188" y="479"/>
      <point x="155" y="479" type="curve" smooth="yes"/>
      <point x="120" y="479"/>
      <point x="94" y="461"/>
      <point x="94" y="426" type="curve" smooth="yes"/>
      <point x="94" y="392"/>
      <point x="123" y="357"/>
    </contour>
  </outline>
</glyph>
<glyph name="eight" format="2">
  <advance width="544"/>
  <unicode hex="0038"/>
  <outline>
    <contour>
      <point x="267" y="258" type="curve" smooth="yes"/>
      <point x="369" y="258"/>
      <point x="433" y="216"/>
      <point x="433" y="152" type="curve" smooth="yes"/>
      <point x="433" y="80"/>
      <point x="374" y="54"/>
      <point x="274" y="54" type="curve" smooth="yes"/>
      <point x="175" y="54"/>
      <point x="129" y="100"/>
      <point x="129" y="160" type="curve" smooth="yes"/>
      <point x="129" y="223"/>
      <point x="175" y="258"/>
    </contour>
    <contour>
      <point x="243" y="559" type="curve" smooth="yes"/>
      <point x="305" y="559"/>
      <point x="347" y="532"/>
      <point x="347" y="477" type="curve" smooth="yes"/>
      <point x="347" y="420"/>
      <point x="307" y="364"/>
      <point x="214" y="364" type="curve" smooth="yes"/>
      <point x="152" y="364"/>
      <point x="107" y="396"/>
      <point x="107" y="457" type="curve" smooth="yes"/>
      <point x="107" y="536"/>
      <point x="173" y="559"/>
    </contour>
    <contour>
      <point x="357" y="667" type="line" smooth="yes"/>
      <point x="340" y="644"/>
      <point x="394" y="610"/>
      <point x="408" y="631" type="curve" smooth="yes"/>
      <point x="414" y="640" type="line" smooth="yes"/>
      <point x="432" y="668"/>
      <point x="383" y="702"/>
      <point x="363" y="675" type="curve" smooth="yes"/>
    </contour>
    <contour>
      <point x="142" y="614" type="line" smooth="yes"/>
      <point x="153" y="582"/>
      <point x="214" y="610"/>
      <point x="204" y="637" type="curve" smooth="yes"/>
      <point x="200" y="648" type="line" smooth="yes"/>
      <point x="186" y="687"/>
      <point x="126" y="663"/>
      <point x="139" y="623" type="curve" smooth="yes"/>
    </contour>
    <contour>
      <point x="312" y="592" type="curve" smooth="yes"/>
      <point x="291" y="592"/>
      <point x="269" y="608"/>
      <point x="269" y="629" type="curve" smooth="yes"/>
      <point x="269" y="649"/>
      <point x="285" y="667"/>
      <point x="306" y="667" type="curve" smooth="yes"/>
      <point x="326" y="667"/>
      <point x="346" y="652"/>
      <point x="346" y="632" type="curve" smooth="yes"/>
      <point x="346" y="611"/>
      <point x="332" y="592"/>
    </contour>
    <contour>
      <point x="406" y="529" type="curve" smooth="yes"/>
      <point x="383" y="529"/>
      <point x="366" y="551"/>
      <point x="366" y="574" type="curve" smooth="yes"/>
      <point x="366" y="597"/>
      <point x="382" y="613"/>
      <point x="405" y="613" type="curve" smooth="yes"/>
      <point x="428" y="613"/>
      <point x="450" y="597"/>
      <point x="450" y="574" type="curve" smooth="yes"/>
      <point x="450" y="551"/>
      <point x="429" y="529"/>
    </contour>
    <contour>
      <point x="436" y="424" type="curve" smooth="yes"/>
      <point x="416" y="424"/>
      <point x="395" y="440"/>
      <point x="395" y="460" type="curve" smooth="yes"/>
      <point x="395" y="479"/>
      <point x="413" y="498"/>
      <point x="433" y="498" type="curve" smooth="yes"/>
      <point x="452" y="498"/>
      <point x="466" y="479"/>
      <point x="466" y="460" type="curve" smooth="yes"/>
      <point x="466" y="440"/>
      <point x="455" y="424"/>
    </contour>
    <contour>
      <point x="205" y="664" type="line" smooth="yes"/>
      <point x="202" y="635"/>
      <point x="264" y="632"/>
      <point x="266" y="657" type="curve" smooth="yes"/>
      <point x="267" y="668" type="line" smooth="yes"/>
      <point x="270" y="704"/>
      <point x="210" y="710"/>
      <point x="206" y="674" type="curve" smooth="yes"/>
    </contour>
    <contour>
      <point x="378" y="297" type="line"/>
      <point x="463" y="311"/>
      <point x="525" y="377"/>
      <point x="525" y="493" type="curve" smooth="yes"/>
      <point x="525" y="636"/>
      <point x="428" y="708"/>
      <point x="271" y="708" type="curve" smooth="yes"/>
      <point x="114" y="708"/>
      <point x="19" y="622"/>
      <point x="19" y="471" type="curve" smooth="yes"/>
      <point x="19" y="385"/>
      <point x="63" y="318"/>
      <point x="162" y="300" type="curve"/>
      <point x="163" y="311" type="line"/>
      <point x="88" y="287"/>
      <point x="47" y="234"/>
      <point x="47" y="161" type="curve" smooth="yes"/>
      <point x="47" y="54"/>
      <point x="122" y="-15"/>
      <point x="280" y="-15" type="curve" smooth="yes"/>
      <point x="442" y="-15"/>
      <point x="517" y="50"/>
      <point x="517" y="151" type="curve" smooth="yes"/>
      <point x="517" y="243"/>
      <point x="454" y="296"/>
      <point x="369" y="313" type="curve"/>
    </contour>
    <contour>
      <point x="452" y="-31" type="line" smooth="yes"/>
      <point x="481" y="-67"/>
      <point x="526" y="-26"/>
      <point x="497" y="9" type="curve" smooth="yes"/>
      <point x="366" y="166" type="line" smooth="yes"/>
      <point x="340" y="197"/>
      <point x="296" y="163"/>
      <point x="322" y="130" type="curve" smooth="yes"/>
    </contour>
    <contour>
      <point x="325" y="-126" type="line" smooth="yes"/>
      <point x="332" y="-169"/>
      <point x="394" y="-160"/>
      <point x="388" y="-119" type="curve" smooth="yes"/>
      <point x="368" y="23" type="line"/>
      <point x="304" y="13" type="line"/>
    </contour>
    <contour>
      <point x="55" y="-37" type="line" smooth="yes"/>
      <point x="25" y="-75"/>
      <point x="85" y="-115"/>
      <point x="109" y="-79" type="curve" smooth="yes"/>
      <point x="186" y="36" type="line"/>
      <point x="141" y="71" type="line"/>
    </contour>
    <contour>
      <point x="191" y="-66" type="line" smooth="yes"/>
      <point x="183" y="-106"/>
      <point x="247" y="-120"/>
      <point x="253" y="-78" type="curve" smooth="yes"/>
      <point x="281" y="107" type="line" smooth="yes"/>
      <point x="287" y="146"/>
      <point x="234" y="155"/>
      <point x="226" y="116" type="curve" smooth="yes"/>
    </contour>
  </outline>
</glyph>
<glyph name="question" format="2">
  <advance width="470"/>
  <unicode hex="003F"/>
  <outline>
    <contour>
      <point x="275" y="211"/>
      <point x="437" y="309"/>
      <point x="437" y="472" type="curve" smooth="yes"/>
      <point x="437" y="605"/>
      <point x="306" y="673"/>
      <point x="185" y="673" type="curve" smooth="yes"/>
      <point x="110" y="673"/>
      <point x="58" y="637"/>
      <point x="58" y="577" type="curve" smooth="yes"/>
      <point x="58" y="541"/>
      <point x="75" y="517"/>
      <point x="108" y="505" type="curve" smooth="yes"/>
      <point x="135" y="495"/>
      <point x="172" y="488"/>
      <point x="219" y="473" type="curve" smooth="yes"/>
      <point x="278" y="454"/>
      <point x="318" y="428"/>
      <point x="318" y="395" type="curve" smooth="yes"/>
      <point x="318" y="332"/>
      <point x="238" y="297"/>
      <point x="138" y="282" type="curve" smooth="yes"/>
      <point x="106" y="277"/>
      <point x="97" y="264"/>
      <point x="97" y="245" type="curve" smooth="yes"/>
      <point x="97" y="226"/>
      <point x="112" y="211"/>
      <point x="137" y="211" type="curve" smooth="yes"/>
    </contour>
    <contour>
      <point x="182" y="-15" type="curve" smooth="yes"/>
      <point x="227" y="-15"/>
      <point x="252" y="14"/>
      <point x="252" y="62" type="curve" smooth="yes"/>
      <point x="252" y="94"/>
      <point x="224" y="120"/>
      <point x="178" y="120" type="curve" smooth="yes"/>
      <point x="140" y="120"/>
      <point x="114" y="94"/>
      <point x="114" y="51" type="curve" smooth="yes"/>
      <point x="114" y="11"/>
      <point x="143" y="-15"/>
    </contour>
    <contour>
      <point x="311" y="494" type="curve" smooth="yes"/>
      <point x="289" y="494"/>
      <point x="270" y="513"/>
      <point x="270" y="535" type="curve" smooth="yes"/>
      <point x="270" y="557"/>
      <point x="289" y="575"/>
      <point x="311" y="575" type="curve" smooth="yes"/>
      <point x="333" y="575"/>
      <point x="351" y="557"/>
      <point x="351" y="535" type="curve" smooth="yes"/>
      <point x="351" y="513"/>
      <point x="333" y="494"/>
    </contour>
    <contour>
      <point x="195" y="532" type="curve" smooth="yes"/>
      <point x="170" y="532"/>
      <point x="151" y="551"/>
      <point x="151" y="576" type="curve" smooth="yes"/>
      <point x="151" y="600"/>
      <point x="170" y="618"/>
      <point x="195" y="618" type="curve" smooth="yes"/>
      <point x="219" y="618"/>
      <point x="237" y="600"/>
      <point x="237" y="576" type="curve" smooth="yes"/>
      <point x="237" y="551"/>
      <point x="219" y="532"/>
    </contour>
    <contour>
      <point x="107" y="642" type="curve"/>
      <point x="181" y="652" type="line"/>
      <point x="178" y="657"/>
      <point x="169" y="664"/>
      <point x="140" y="660" type="curve" smooth="yes"/>
      <point x="113" y="656"/>
      <point x="106" y="649"/>
    </contour>
    <contour>
      <point x="123" y="521" type="line"/>
      <point x="125" y="515"/>
      <point x="134" y="509"/>
      <point x="156" y="504" type="curve" smooth="yes"/>
      <point x="180" y="497"/>
      <point x="184" y="500"/>
      <point x="187" y="506" type="curve"/>
    </contour>
    <contour>
      <point x="317" y="627" type="line"/>
      <point x="317" y="637"/>
      <point x="315" y="644"/>
      <point x="291" y="651" type="curve" smooth="yes"/>
      <point x="263" y="659"/>
      <point x="251" y="655"/>
      <point x="246" y="647" type="curve"/>
    </contour>
    <contour>
      <point x="394" y="556" type="line"/>
      <point x="398" y="562"/>
      <point x="401" y="571"/>
      <point x="389" y="587" type="curve" smooth="yes"/>
      <point x="374" y="607"/>
      <point x="366" y="606"/>
      <point x="358" y="602" type="curve"/>
    </contour>
    <contour>
      <point x="421" y="509" type="curve"/>
      <point x="419" y="441" type="line"/>
      <point x="425" y="442"/>
      <point x="430" y="451"/>
      <point x="429" y="478" type="curve" smooth="yes"/>
      <point x="428" y="503"/>
      <point x="426" y="510"/>
    </contour>
    <contour>
      <point x="383" y="368" type="curve"/>
      <point x="345" y="323" type="line"/>
      <point x="351" y="319"/>
      <point x="357" y="319"/>
      <point x="373" y="338" type="curve" smooth="yes"/>
      <point x="391" y="360"/>
      <point x="390" y="362"/>
    </contour>
    <contour>
      <point x="274" y="267" type="curve" smooth="yes"/>
      <point x="268" y="281"/>
      <point x="263" y="292"/>
      <point x="257" y="303" type="curve" smooth="yes"/>
      <point x="218" y="375"/>
      <point x="200" y="388"/>
      <point x="179" y="378" type="curve" smooth="yes"/>
      <point x="159" y="368"/>
      <point x="156" y="352"/>
      <point x="193" y="274" type="curve" smooth="yes"/>
      <point x="198" y="263"/>
      <point x="203" y="251"/>
      <point x="209" y="239" type="curve" smooth="yes"/>
      <point x="250" y="163"/>
      <point x="265" y="150"/>
      <point x="288" y="160" type="curve" smooth="yes"/>
      <point x="310" y="171"/>
      <point x="307" y="191"/>
    </contour>
  </outline>
</glyph>
<glyph name="B" format="2">
  <advance width="568"/>
  <unicode hex="0042"/>
  <unicode hex="0062"/>
  <anchor x="277" y="0" name="bottom"/>
  <anchor x="274" y="733" name="top"/>
  <outline>
    <contour>
      <point x="61" y="135" type="curve" smooth="yes"/>
      <point x="60" y="45"/>
      <point x="100" y="-2"/>
      <point x="241" y="-2" type="curve" smooth="yes"/>
      <point x="437" y="-2"/>
      <point x="542" y="60"/>
      <point x="542" y="214" type="curve" smooth="yes"/>
      <point x="542" y="335"/>
      <point x="476" y="379"/>
      <point x="406" y="403" type="curve" smooth="yes"/>
      <point x="399" y="405"/>
      <point x="396" y="409"/>
      <point x="396" y="414" type="curve" smooth="yes"/>
      <point x="396" y="435"/>
      <point x="463" y="447"/>
      <point x="463" y="542" type="curve" smooth="yes"/>
      <point x="463" y="617"/>
      <point x="414" y="692"/>
      <point x="259" y="688" type="curve" smooth="yes"/>
      <point x="156" y="685"/>
      <point x="125" y="685"/>
      <point x="98" y="658" type="curve" smooth="yes"/>
      <point x="84" y="644"/>
      <point x="78" y="621"/>
      <point x="76" y="591" type="curve" smooth="yes"/>
      <point x="68" y="439"/>
      <point x="63" y="287"/>
    </contour>
    <contour>
      <point x="241" y="623" type="curve" smooth="yes"/>
      <point x="350" y="626"/>
      <point x="387" y="587"/>
      <point x="387" y="540" type="curve" smooth="yes"/>
      <point x="387" y="473"/>
      <point x="306" y="425"/>
      <point x="204" y="425" type="curve" smooth="yes"/>
      <point x="153" y="425"/>
      <point x="147" y="451"/>
      <point x="155" y="522" type="curve" smooth="yes"/>
      <point x="165" y="614"/>
      <point x="173" y="621"/>
    </contour>
    <contour>
      <point x="142" y="157" type="curve" smooth="yes"/>
      <point x="142" y="223"/>
      <point x="151" y="254"/>
      <point x="222" y="245" type="curve" smooth="yes"/>
      <point x="341" y="229"/>
      <point x="416" y="191"/>
      <point x="415" y="136" type="curve" smooth="yes"/>
      <point x="414" y="95"/>
      <point x="377" y="68"/>
      <point x="243" y="68" type="curve" smooth="yes"/>
      <point x="173" y="68"/>
      <point x="142" y="84"/>
    </contour>
    <contour>
      <point x="224" y="304" type="curve" smooth="yes"/>
      <point x="207" y="304"/>
      <point x="192" y="319"/>
      <point x="192" y="336" type="curve" smooth="yes"/>
      <point x="192" y="353"/>
      <point x="207" y="368"/>
      <point x="224" y="368" type="curve" smooth="yes"/>
      <point x="241" y="368"/>
      <point x="256" y="353"/>
      <point x="256" y="336" type="curve" smooth="yes"/>
      <point x="256" y="319"/>
      <point x="241" y="304"/>
    </contour>
    <contour>
      <point x="333" y="281" type="curve" smooth="yes"/>
      <point x="309" y="281"/>
      <point x="292" y="298"/>
      <point x="292" y="321" type="curve" smooth="yes"/>
      <point x="292" y="342"/>
      <point x="309" y="360"/>
      <point x="333" y="360" type="curve" smooth="yes"/>
      <point x="356" y="360"/>
      <point x="373" y="342"/>
      <point x="373" y="321" type="curve" smooth="yes"/>
      <point x="373" y="298"/>
      <point x="356" y="281"/>
    </contour>
    <contour>
      <point x="426" y="250" type="curve" smooth="yes"/>
      <point x="409" y="250"/>
      <point x="394" y="265"/>
      <point x="394" y="282" type="curve" smooth="yes"/>
      <point x="394" y="299"/>
      <point x="409" y="314"/>
      <point x="426" y="314" type="curve" smooth="yes"/>
      <point x="443" y="314"/>
      <point x="458" y="299"/>
      <point x="458" y="282" type="curve" smooth="yes"/>
      <point x="458" y="265"/>
      <point x="443" y="250"/>
    </contour>
    <contour>
      <point x="179" y="644" type="line"/>
      <point x="143" y="782"/>
      <point x="133" y="806"/>
      <point x="97" y="796" type="curve" smooth="yes"/>
      <point x="62" y="786"/>
      <point x="64" y="758"/>
      <point x="119" y="626" type="curve"/>
    </contour>
    <contour>
      <point x="177" y="629" type="line"/>
      <point x="182" y="654"/>
      <point x="167" y="669"/>
      <point x="145" y="669" type="curve" smooth="yes"/>
      <point x="125" y="669"/>
      <point x="121" y="658"/>
      <point x="121" y="636" type="curve"/>
    </contour>
    <contour>
      <point x="235" y="643" type="line"/>
      <point x="242" y="664"/>
      <point x="239" y="679"/>
      <point x="210" y="679" type="curve" smooth="yes"/>
      <point x="186" y="679"/>
      <point x="180" y="667"/>
      <point x="183" y="646" type="curve"/>
    </contour>
    <contour>
      <point x="323" y="664" type="line"/>
      <point x="331" y="807"/>
      <point x="331" y="836"/>
      <point x="291" y="836" type="curve" smooth="yes"/>
      <point x="262" y="836"/>
      <point x="254" y="816"/>
      <point x="249" y="667" type="curve"/>
    </contour>
    <contour>
      <point x="494" y="654" type="curve" smooth="yes"/>
      <point x="527" y="680"/>
      <point x="525" y="697"/>
      <point x="515" y="711" type="curve" smooth="yes"/>
      <point x="504" y="728"/>
      <point x="484" y="738"/>
      <point x="448" y="710" type="curve" smooth="yes"/>
      <point x="396" y="669"/>
      <point x="339" y="622"/>
      <point x="277" y="571" type="curve" smooth="yes"/>
      <point x="246" y="545"/>
      <point x="246" y="527"/>
      <point x="259" y="513" type="curve" smooth="yes"/>
      <point x="272" y="500"/>
      <point x="287" y="499"/>
      <point x="316" y="521" type="curve" smooth="yes"/>
      <point x="374" y="563"/>
      <point x="432" y="606"/>
    </contour>
    <contour>
      <point x="427" y="480" type="line"/>
      <point x="518" y="455"/>
      <point x="543" y="453"/>
      <point x="552" y="484" type="curve" smooth="yes"/>
      <point x="563" y="521"/>
      <point x="546" y="531"/>
      <point x="441" y="542" type="curve"/>
    </contour>
    <contour>
      <point x="267" y="98" type="curve" smooth="yes"/>
      <point x="274" y="121"/>
      <point x="268" y="136"/>
      <point x="256" y="142" type="curve" smooth="yes"/>
      <point x="242" y="150"/>
      <point x="221" y="145"/>
      <point x="212" y="125" type="curve" smooth="yes"/>
      <point x="185" y="68"/>
      <point x="158" y="7"/>
      <point x="127" y="-63" type="curve" smooth="yes"/>
      <point x="114" y="-93"/>
      <point x="131" y="-115"/>
      <point x="153" y="-121" type="curve" smooth="yes"/>
      <point x="171" y="-125"/>
      <point x="191" y="-118"/>
      <point x="200" y="-94" type="curve" smooth="yes"/>
      <point x="223" y="-29"/>
      <point x="242" y="20"/>
    </contour>
  </outline>
</glyph>
<glyph name="D" format="2">
  <advance width="620"/>
  <unicode hex="0044"/>
  <unicode hex="0064"/>
  <anchor x="278" y="0" name="bottom"/>
  <anchor x="300" y="687" name="top"/>
  <outline>
    <contour>
      <point x="60" y="90" type="curve" smooth="yes"/>
      <point x="55" y="-8"/>
      <point x="124" y="-30"/>
      <point x="235" y="-30" type="curve" smooth="yes"/>
      <point x="440" y="-30"/>
      <point x="544" y="88"/>
      <point x="544" y="336" type="curve" smooth="yes"/>
      <point x="544" y="594"/>
      <point x="440" y="701"/>
      <point x="242" y="703" type="curve" smooth="yes"/>
      <point x="121" y="704"/>
      <point x="96" y="676"/>
      <point x="91" y="608" type="curve" smooth="yes"/>
      <point x="84" y="513"/>
      <point x="78" y="419"/>
      <point x="73" y="324" type="curve"/>
      <point x="164" y="327"/>
      <point x="181" y="318"/>
      <point x="181" y="294" type="curve" smooth="yes"/>
      <point x="181" y="267"/>
      <point x="159" y="257"/>
      <point x="69" y="257" type="curve"/>
      <point x="68" y="240"/>
      <point x="67" y="223"/>
      <point x="66" y="206" type="curve"/>
      <point x="171" y="201"/>
      <point x="186" y="189"/>
      <point x="185" y="164" type="curve" smooth="yes"/>
      <point x="184" y="139"/>
      <point x="161" y="127"/>
      <point x="63" y="141" type="curve"/>
      <point x="62" y="124"/>
      <point x="61" y="107"/>
    </contour>
    <contour>
      <point x="256" y="101" type="curve" smooth="yes"/>
      <point x="232" y="261"/>
      <point x="216" y="421"/>
      <point x="208" y="581" type="curve" smooth="yes"/>
      <point x="206" y="624"/>
      <point x="229" y="634"/>
      <point x="285" y="630" type="curve" smooth="yes"/>
      <point x="395" y="622"/>
      <point x="461" y="530"/>
      <point x="462" y="333" type="curve" smooth="yes"/>
      <point x="463" y="140"/>
      <point x="390" y="48"/>
      <point x="303" y="48" type="curve" smooth="yes"/>
      <point x="274" y="48"/>
      <point x="263" y="56"/>
    </contour>
    <contour>
      <point x="382" y="648" type="curve" smooth="yes"/>
      <point x="382" y="648"/>
      <point x="382" y="648"/>
      <point x="382" y="648" type="curve" smooth="yes"/>
      <point x="382" y="648"/>
      <point x="382" y="648"/>
      <point x="382" y="648" type="curve" smooth="yes"/>
      <point x="382" y="648"/>
      <point x="382" y="648"/>
      <point x="382" y="648" type="curve" smooth="yes"/>
      <point x="382" y="648"/>
      <point x="382" y="648"/>
    </contour>
    <contour>
      <point x="428" y="612" type="curve" smooth="yes"/>
      <point x="428" y="612"/>
      <point x="428" y="612"/>
      <point x="428" y="612" type="curve" smooth="yes"/>
      <point x="428" y="612"/>
      <point x="428" y="612"/>
      <point x="428" y="612" type="curve" smooth="yes"/>
      <point x="428" y="612"/>
      <point x="428" y="612"/>
      <point x="428" y="612" type="curve" smooth="yes"/>
      <point x="428" y="612"/>
      <point x="428" y="612"/>
    </contour>
    <contour>
      <point x="332" y="662" type="curve" smooth="yes"/>
      <point x="332" y="662"/>
      <point x="332" y="662"/>
      <point x="332" y="662" type="curve" smooth="yes"/>
      <point x="332" y="662"/>
      <point x="332" y="662"/>
      <point x="332" y="662" type="curve" smooth="yes"/>
      <point x="332" y="662"/>
      <point x="332" y="662"/>
      <point x="332" y="662" type="curve" smooth="yes"/>
      <point x="332" y="662"/>
      <point x="332" y="662"/>
    </contour>
    <contour>
      <point x="132" y="539" type="curve" smooth="yes"/>
      <point x="112" y="540"/>
      <point x="102" y="522"/>
      <point x="102" y="505" type="curve" smooth="yes"/>
      <point x="102" y="489"/>
      <point x="110" y="474"/>
      <point x="127" y="474" type="curve" smooth="yes"/>
      <point x="138" y="474"/>
      <point x="150" y="473"/>
      <point x="161" y="473" type="curve" smooth="yes"/>
      <point x="179" y="472"/>
      <point x="189" y="489"/>
      <point x="189" y="506" type="curve" smooth="yes"/>
      <point x="189" y="521"/>
      <point x="181" y="536"/>
      <point x="164" y="537" type="curve" smooth="yes"/>
      <point x="153" y="538"/>
      <point x="143" y="538"/>
    </contour>
    <contour>
      <point x="356" y="580" type="curve" smooth="yes"/>
      <point x="320" y="566"/>
      <point x="313" y="552"/>
      <point x="318" y="533" type="curve" smooth="yes"/>
      <point x="324" y="510"/>
      <point x="336" y="502"/>
      <point x="385" y="515" type="curve" smooth="yes"/>
      <point x="423" y="525"/>
      <point x="489" y="545"/>
      <point x="534" y="561" type="curve" smooth="yes"/>
      <point x="572" y="575"/>
      <point x="586" y="595"/>
      <point x="575" y="620" type="curve" smooth="yes"/>
      <point x="566" y="640"/>
      <point x="551" y="650"/>
      <point x="512" y="637" type="curve" smooth="yes"/>
      <point x="465" y="622"/>
      <point x="401" y="598"/>
    </contour>
    <contour>
      <point x="406" y="455" type="curve" smooth="yes"/>
      <point x="366" y="443"/>
      <point x="356" y="431"/>
      <point x="362" y="407" type="curve" smooth="yes"/>
      <point x="367" y="387"/>
      <point x="382" y="379"/>
      <point x="415" y="385" type="curve" smooth="yes"/>
      <point x="466" y="395"/>
      <point x="531" y="410"/>
      <point x="577" y="423" type="curve" smooth="yes"/>
      <point x="611" y="433"/>
      <point x="622" y="451"/>
      <point x="618" y="470" type="curve" smooth="yes"/>
      <point x="613" y="491"/>
      <point x="602" y="498"/>
      <point x="552" y="490" type="curve" smooth="yes"/>
      <point x="516" y="484"/>
      <point x="454" y="469"/>
    </contour>
  </outline>
</glyph>
<glyph name="J" format="2">
  <advance width="503"/>
  <unicode hex="004A"/>
  <unicode hex="006A"/>
  <anchor x="225" y="0" name="bottom"/>
  <anchor x="237" y="718" name="top"/>
  <outline>
    <contour>
      <point x="182" y="3" type="curve" smooth="yes"/>
      <point x="312" y="3"/>
      <point x="409" y="69"/>
      <point x="421" y="232" type="curve" smooth="yes"/>
      <point x="432" y="377"/>
      <point x="438" y="514"/>
      <point x="438" y="648" type="curve" smooth="yes"/>
      <point x="438" y="704"/>
      <point x="415" y="728"/>
      <point x="355" y="721" type="curve" smooth="yes"/>
      <point x="270" y="711"/>
      <point x="167" y="694"/>
      <point x="76" y="677" type="curve" smooth="yes"/>
      <point x="38" y="670"/>
      <point x="6" y="659"/>
      <point x="11" y="623" type="curve" smooth="yes"/>
      <point x="15" y="594"/>
      <point x="43" y="589"/>
      <point x="88" y="593" type="curve" smooth="yes"/>
      <point x="132" y="597"/>
      <point x="180" y="606"/>
      <point x="219" y="610" type="curve" smooth="yes"/>
      <point x="241" y="612"/>
      <point x="251" y="605"/>
      <point x="255" y="578" type="curve" smooth="yes"/>
      <point x="273" y="460"/>
      <point x="286" y="349"/>
      <point x="296" y="218" type="curve" smooth="yes"/>
      <point x="302" y="136"/>
      <point x="267" y="89"/>
      <point x="187" y="89" type="curve" smooth="yes"/>
      <point x="121" y="89"/>
      <point x="91" y="121"/>
      <point x="58" y="121" type="curve" smooth="yes"/>
      <point x="24" y="121"/>
      <point x="9" y="78"/>
      <point x="41" y="46" type="curve" smooth="yes"/>
      <point x="69" y="18"/>
      <point x="124" y="3"/>
    </contour>
    <contour>
      <point x="275" y="483" type="curve" smooth="yes"/>
      <point x="283" y="485"/>
      <point x="284" y="500"/>
      <point x="284" y="523" type="curve" smooth="yes"/>
      <point x="284" y="544"/>
      <point x="275" y="556"/>
      <point x="264" y="555" type="curve" smooth="yes"/>
      <point x="211" y="548"/>
      <point x="159" y="538"/>
      <point x="116" y="528" type="curve" smooth="yes"/>
      <point x="72" y="519"/>
      <point x="47" y="508"/>
      <point x="47" y="482" type="curve" smooth="yes"/>
      <point x="47" y="441"/>
      <point x="84" y="440"/>
      <point x="128" y="449" type="curve" smooth="yes"/>
      <point x="176" y="458"/>
      <point x="227" y="469"/>
    </contour>
    <contour>
      <point x="400" y="396" type="curve"/>
      <point x="400" y="335" type="line"/>
      <point x="415" y="333"/>
      <point x="423" y="338"/>
      <point x="423" y="369" type="curve" smooth="yes"/>
      <point x="423" y="393"/>
      <point x="417" y="396"/>
    </contour>
    <contour>
      <point x="147" y="222" type="curve" smooth="yes"/>
      <point x="178" y="222"/>
      <point x="204" y="248"/>
      <point x="204" y="280" type="curve" smooth="yes"/>
      <point x="204" y="311"/>
      <point x="178" y="338"/>
      <point x="147" y="338" type="curve" smooth="yes"/>
      <point x="114" y="338"/>
      <point x="88" y="311"/>
      <point x="88" y="280" type="curve" smooth="yes"/>
      <point x="88" y="248"/>
      <point x="114" y="222"/>
    </contour>
    <contour>
      <point x="148" y="282" type="curve" smooth="yes"/>
      <point x="148" y="282"/>
      <point x="148" y="282"/>
      <point x="148" y="282" type="curve" smooth="yes"/>
      <point x="148" y="282"/>
      <point x="148" y="282"/>
      <point x="148" y="282" type="curve" smooth="yes"/>
      <point x="148" y="282"/>
      <point x="148" y="282"/>
      <point x="148" y="282" type="curve" smooth="yes"/>
      <point x="148" y="282"/>
      <point x="148" y="282"/>
    </contour>
    <contour>
      <point x="158" y="47" type="curve" smooth="yes"/>
      <point x="158" y="47"/>
      <point x="158" y="47"/>
      <point x="158" y="47" type="curve" smooth="yes"/>
      <point x="158" y="47"/>
      <point x="158" y="47"/>
      <point x="158" y="47" type="curve" smooth="yes"/>
      <point x="158" y="47"/>
      <point x="158" y="47"/>
      <point x="158" y="47" type="curve" smooth="yes"/>
      <point x="158" y="47"/>
      <point x="158" y="47"/>
    </contour>
    <contour>
      <point x="353" y="403" type="curve" smooth="yes"/>
      <point x="329" y="403"/>
      <point x="312" y="423"/>
      <point x="312" y="445" type="curve" smooth="yes"/>
      <point x="312" y="469"/>
      <point x="329" y="486"/>
      <point x="353" y="486" type="curve" smooth="yes"/>
      <point x="378" y="486"/>
      <point x="395" y="469"/>
      <point x="395" y="445" type="curve" smooth="yes"/>
      <point x="395" y="423"/>
      <point x="378" y="403"/>
    </contour>
    <contour>
      <point x="345" y="542" type="curve" smooth="yes"/>
      <point x="322" y="542"/>
      <point x="305" y="562"/>
      <point x="305" y="583" type="curve" smooth="yes"/>
      <point x="305" y="607"/>
      <point x="322" y="623"/>
      <point x="345" y="623" type="curve" smooth="yes"/>
      <point x="370" y="623"/>
      <point x="386" y="607"/>
      <point x="386" y="583" type="curve" smooth="yes"/>
      <point x="386" y="562"/>
      <point x="370" y="542"/>
    </contour>
  </outline>
</glyph>
<glyph name="K" format="2">
  <advance width="609"/>
  <unicode hex="004B"/>
  <unicode hex="006B"/>
  <anchor x="282" y="6" name="bottom"/>
  <anchor x="300" y="670" name="top"/>
  <outline>
    <contour>
      <point x="95" y="36" type="curve" smooth="yes"/>
      <point x="98" y="2"/>
      <point x="109" y="-21"/>
      <point x="136" y="-21" type="curve" smooth="yes"/>
      <point x="169" y="-21"/>
      <point x="178" y="2"/>
      <point x="178" y="40" type="curve" smooth="yes"/>
      <point x="178" y="102"/>
      <point x="172" y="158"/>
      <point x="172" y="219" type="curve" smooth="yes"/>
      <point x="172" y="231"/>
      <point x="177" y="238"/>
      <point x="187" y="238" type="curve" smooth="yes"/>
      <point x="193" y="238"/>
      <point x="199" y="236"/>
      <point x="208" y="225" type="curve" smooth="yes"/>
      <point x="373" y="23"/>
      <point x="418" y="-26"/>
      <point x="487" y="-26" type="curve" smooth="yes"/>
      <point x="551" y="-26"/>
      <point x="606" y="20"/>
      <point x="606" y="109" type="curve" smooth="yes"/>
      <point x="606" y="190"/>
      <point x="562" y="230"/>
      <point x="266" y="301" type="curve" smooth="yes"/>
      <point x="241" y="307"/>
      <point x="241" y="328"/>
      <point x="261" y="348" type="curve" smooth="yes"/>
      <point x="353" y="443"/>
      <point x="444" y="529"/>
      <point x="534" y="624" type="curve" smooth="yes"/>
      <point x="564" y="656"/>
      <point x="580" y="687"/>
      <point x="553" y="714" type="curve" smooth="yes"/>
      <point x="528" y="738"/>
      <point x="499" y="727"/>
      <point x="461" y="687" type="curve" smooth="yes"/>
      <point x="373" y="593"/>
      <point x="290" y="492"/>
      <point x="200" y="394" type="curve" smooth="yes"/>
      <point x="182" y="374"/>
      <point x="167" y="382"/>
      <point x="166" y="403" type="curve" smooth="yes"/>
      <point x="161" y="476"/>
      <point x="164" y="551"/>
      <point x="160" y="623" type="curve" smooth="yes"/>
      <point x="158" y="666"/>
      <point x="149" y="691"/>
      <point x="112" y="691" type="curve" smooth="yes"/>
      <point x="74" y="691"/>
      <point x="59" y="665"/>
      <point x="61" y="617" type="curve" smooth="yes"/>
      <point x="68" y="424"/>
      <point x="79" y="231"/>
    </contour>
    <contour>
      <point x="445" y="320" type="curve" smooth="yes"/>
      <point x="476" y="320"/>
      <point x="502" y="346"/>
      <point x="502" y="377" type="curve" smooth="yes"/>
      <point x="502" y="408"/>
      <point x="476" y="434"/>
      <point x="445" y="434" type="curve" smooth="yes"/>
      <point x="414" y="434"/>
      <point x="388" y="408"/>
      <point x="388" y="377" type="curve" smooth="yes"/>
      <point x="388" y="346"/>
      <point x="414" y="320"/>
    </contour>
    <contour>
      <point x="417" y="662" type="curve" smooth="yes"/>
      <point x="384" y="683"/>
      <point x="361" y="694"/>
      <point x="342" y="675" type="curve" smooth="yes"/>
      <point x="323" y="655"/>
      <point x="336" y="629"/>
      <point x="369" y="600" type="curve" smooth="yes"/>
      <point x="397" y="576"/>
      <point x="425" y="553"/>
      <point x="455" y="531" type="curve" smooth="yes"/>
      <point x="505" y="494"/>
      <point x="532" y="496"/>
      <point x="548" y="523" type="curve" smooth="yes"/>
      <point x="561" y="545"/>
      <point x="546" y="568"/>
      <point x="512" y="595" type="curve" smooth="yes"/>
      <point x="482" y="619"/>
      <point x="450" y="641"/>
    </contour>
    <contour>
      <point x="340" y="513" type="line"/>
      <point x="272" y="593"/>
      <point x="245" y="610"/>
      <point x="220" y="589" type="curve" smooth="yes"/>
      <point x="194" y="567"/>
      <point x="207" y="537"/>
      <point x="293" y="462" type="curve"/>
    </contour>
    <contour>
      <point x="128" y="114" type="curve" smooth="yes"/>
      <point x="114" y="114"/>
      <point x="102" y="107"/>
      <point x="102" y="85" type="curve" smooth="yes"/>
      <point x="102" y="64"/>
      <point x="114" y="57"/>
      <point x="128" y="57" type="curve" smooth="yes"/>
      <point x="133" y="57"/>
      <point x="137" y="57"/>
      <point x="142" y="57" type="curve" smooth="yes"/>
      <point x="154" y="57"/>
      <point x="166" y="63"/>
      <point x="166" y="87" type="curve" smooth="yes"/>
      <point x="166" y="108"/>
      <point x="159" y="114"/>
      <point x="145" y="114" type="curve" smooth="yes"/>
      <point x="139" y="114"/>
      <point x="134" y="114"/>
    </contour>
    <contour>
      <point x="122" y="402" type="curve" smooth="yes"/>
      <point x="134" y="402"/>
      <point x="145" y="413"/>
      <point x="145" y="426" type="curve" smooth="yes"/>
      <point x="145" y="438"/>
      <point x="134" y="449"/>
      <point x="122" y="449" type="curve" smooth="yes"/>
      <point x="109" y="449"/>
      <point x="98" y="438"/>
      <point x="98" y="426" type="curve" smooth="yes"/>
      <point x="98" y="413"/>
      <point x="109" y="402"/>
    </contour>
    <contour>
      <point x="113" y="560" type="curve" smooth="yes"/>
      <point x="124" y="560"/>
      <point x="134" y="570"/>
      <point x="134" y="583" type="curve" smooth="yes"/>
      <point x="134" y="594"/>
      <point x="124" y="604"/>
      <point x="113" y="604" type="curve" smooth="yes"/>
      <point x="100" y="604"/>
      <point x="90" y="594"/>
      <point x="90" y="583" type="curve" smooth="yes"/>
      <point x="90" y="570"/>
      <point x="100" y="560"/>
    </contour>
    <contour>
      <point x="118" y="480" type="curve" smooth="yes"/>
      <point x="132" y="480"/>
      <point x="145" y="492"/>
      <point x="145" y="508" type="curve" smooth="yes"/>
      <point x="145" y="522"/>
      <point x="132" y="535"/>
      <point x="118" y="535" type="curve" smooth="yes"/>
      <point x="102" y="535"/>
      <point x="90" y="522"/>
      <point x="90" y="508" type="curve" smooth="yes"/>
      <point x="90" y="492"/>
      <point x="102" y="480"/>
    </contour>
    <contour>
      <point x="488" y="50" type="curve" smooth="yes"/>
      <point x="460" y="50"/>
      <point x="438" y="72"/>
      <point x="438" y="100" type="curve" smooth="yes"/>
      <point x="438" y="127"/>
      <point x="460" y="149"/>
      <point x="488" y="149" type="curve" smooth="yes"/>
      <point x="515" y="149"/>
      <point x="537" y="127"/>
      <point x="537" y="100" type="curve" smooth="yes"/>
      <point x="537" y="72"/>
      <point x="515" y="50"/>
    </contour>
    <contour>
      <point x="389" y="124" type="curve" smooth="yes"/>
      <point x="366" y="124"/>
      <point x="347" y="143"/>
      <point x="347" y="166" type="curve" smooth="yes"/>
      <point x="347" y="188"/>
      <point x="366" y="207"/>
      <point x="389" y="207" type="curve" smooth="yes"/>
      <point x="411" y="207"/>
      <point x="430" y="188"/>
      <point x="430" y="166" type="curve" smooth="yes"/>
      <point x="430" y="143"/>
      <point x="411" y="124"/>
    </contour>
  </outline>
</glyph>
<glyph name="L" format="2">
  <advance width="504"/>
  <unicode hex="004C"/>
  <unicode hex="006C"/>
  <anchor x="258" y="-9" name="bottom"/>
  <anchor x="181" y="695" name="top"/>
  <outline>
    <contour>
      <point x="176" y="-12" type="curve" smooth="yes"/>
      <point x="191" y="-12"/>
      <point x="206" y="-12"/>
      <point x="220" y="-12" type="curve"/>
      <point x="216" y="62"/>
      <point x="226" y="84"/>
      <point x="253" y="84" type="curve" smooth="yes"/>
      <point x="276" y="84"/>
      <point x="289" y="70"/>
      <point x="282" y="-12" type="curve"/>
      <point x="304" y="-12"/>
      <point x="325" y="-12"/>
      <point x="346" y="-11" type="curve"/>
      <point x="343" y="93"/>
      <point x="353" y="114"/>
      <point x="379" y="114" type="curve" smooth="yes"/>
      <point x="402" y="114"/>
      <point x="413" y="97"/>
      <point x="402" y="-10" type="curve"/>
      <point x="404" y="-10"/>
      <point x="407" y="-10"/>
      <point x="409" y="-10" type="curve" smooth="yes"/>
      <point x="471" y="-8"/>
      <point x="497" y="20"/>
      <point x="497" y="86" type="curve" smooth="yes"/>
      <point x="497" y="177"/>
      <point x="447" y="198"/>
      <point x="374" y="192" type="curve" smooth="yes"/>
      <point x="298" y="185"/>
      <point x="260" y="178"/>
      <point x="231" y="176" type="curve" smooth="yes"/>
      <point x="202" y="173"/>
      <point x="193" y="181"/>
      <point x="195" y="205" type="curve" smooth="yes"/>
      <point x="195" y="209"/>
      <point x="196" y="214"/>
      <point x="196" y="218" type="curve" smooth="yes"/>
      <point x="197" y="229"/>
      <point x="197" y="241"/>
      <point x="198" y="253" type="curve" smooth="yes"/>
      <point x="199" y="262"/>
      <point x="200" y="272"/>
      <point x="201" y="282" type="curve" smooth="yes"/>
      <point x="202" y="289"/>
      <point x="202" y="296"/>
      <point x="203" y="303" type="curve" smooth="yes"/>
      <point x="204" y="312"/>
      <point x="205" y="322"/>
      <point x="206" y="331" type="curve" smooth="yes"/>
      <point x="207" y="342"/>
      <point x="207" y="353"/>
      <point x="208" y="364" type="curve" smooth="yes"/>
      <point x="215" y="437"/>
      <point x="224" y="525"/>
      <point x="232" y="635" type="curve" smooth="yes"/>
      <point x="235" y="676"/>
      <point x="222" y="702"/>
      <point x="189" y="702" type="curve" smooth="yes"/>
      <point x="158" y="702"/>
      <point x="146" y="681"/>
      <point x="142" y="640" type="curve" smooth="yes"/>
      <point x="124" y="455"/>
      <point x="110" y="269"/>
      <point x="98" y="84" type="curve" smooth="yes"/>
      <point x="94" y="17"/>
      <point x="117" y="-11"/>
    </contour>
    <contour>
      <point x="139" y="236" type="curve"/>
      <point x="143" y="311" type="line"/>
      <point x="43" y="317"/>
      <point x="13" y="312"/>
      <point x="13" y="276" type="curve" smooth="yes"/>
      <point x="13" y="242"/>
      <point x="40" y="235"/>
    </contour>
    <contour>
      <point x="194" y="503" type="line"/>
      <point x="323" y="507"/>
      <point x="350" y="514"/>
      <point x="350" y="545" type="curve" smooth="yes"/>
      <point x="350" y="583"/>
      <point x="321" y="584"/>
      <point x="192" y="574" type="curve"/>
    </contour>
    <contour>
      <point x="185" y="650" type="curve" smooth="yes"/>
      <point x="185" y="650"/>
      <point x="185" y="650"/>
      <point x="185" y="650" type="curve" smooth="yes"/>
      <point x="185" y="650"/>
      <point x="185" y="650"/>
      <point x="185" y="650" type="curve" smooth="yes"/>
      <point x="185" y="650"/>
      <point x="185" y="650"/>
      <point x="185" y="650" type="curve" smooth="yes"/>
      <point x="185" y="650"/>
      <point x="185" y="650"/>
    </contour>
    <contour>
      <point x="448" y="13" type="curve" smooth="yes"/>
      <point x="461" y="13"/>
      <point x="476" y="20"/>
      <point x="480" y="36" type="curve" smooth="yes"/>
      <point x="482" y="43"/>
      <point x="483" y="48"/>
      <point x="483" y="54" type="curve" smooth="yes"/>
      <point x="485" y="76"/>
      <point x="475" y="88"/>
      <point x="457" y="88" type="curve" smooth="yes"/>
      <point x="439" y="88"/>
      <point x="428" y="81"/>
      <point x="424" y="63" type="curve" smooth="yes"/>
      <point x="423" y="59"/>
      <point x="422" y="54"/>
      <point x="422" y="48" type="curve" smooth="yes"/>
      <point x="420" y="25"/>
      <point x="433" y="13"/>
    </contour>
    <contour>
      <point x="202" y="383" type="line"/>
      <point x="300" y="381"/>
      <point x="325" y="386"/>
      <point x="325" y="419" type="curve" smooth="yes"/>
      <point x="325" y="447"/>
      <point x="306" y="454"/>
      <point x="206" y="456" type="curve"/>
    </contour>
  </outline>
</glyph>
<glyph name="Q" format="2">
  <advance width="627"/>
  <unicode hex="0051"/>
  <unicode hex="0071"/>
  <anchor x="258" y="0" name="bottom"/>
  <anchor x="333" y="700" name="top"/>
  <outline>
    <contour>
      <point x="143" y="42"/>
      <point x="156" y="42"/>
      <point x="145" y="9" type="curve" smooth="yes"/>
      <point x="135" y="-23"/>
      <point x="121" y="-38"/>
      <point x="108" y="-71" type="curve" smooth="yes"/>
      <point x="96" y="-101"/>
      <point x="98" y="-129"/>
      <point x="126" y="-140" type="curve" smooth="yes"/>
      <point x="157" y="-152"/>
      <point x="177" y="-134"/>
      <point x="190" y="-98" type="curve" smooth="yes"/>
      <point x="199" y="-74"/>
      <point x="201" y="-50"/>
      <point x="208" y="-27" type="curve" smooth="yes"/>
      <point x="215" y="-3"/>
      <point x="223" y="8"/>
      <point x="253" y="8" type="curve" smooth="yes"/>
      <point x="448" y="8"/>
      <point x="587" y="134"/>
      <point x="587" y="366" type="curve" smooth="yes"/>
      <point x="587" y="562"/>
      <point x="498" y="708"/>
      <point x="330" y="708" type="curve" smooth="yes"/>
      <point x="170" y="708"/>
      <point x="40" y="591"/>
      <point x="40" y="342" type="curve" smooth="yes"/>
      <point x="40" y="204"/>
      <point x="73" y="112"/>
      <point x="115" y="70" type="curve" smooth="yes"/>
    </contour>
    <contour>
      <point x="265" y="78" type="curve" smooth="yes"/>
      <point x="163" y="78"/>
      <point x="115" y="198"/>
      <point x="116" y="338" type="curve" smooth="yes"/>
      <point x="117" y="491"/>
      <point x="166" y="590"/>
      <point x="257" y="590" type="curve" smooth="yes"/>
      <point x="355" y="590"/>
      <point x="401" y="474"/>
      <point x="401" y="309" type="curve" smooth="yes"/>
      <point x="401" y="156"/>
      <point x="352" y="78"/>
    </contour>
    <contour>
      <point x="408" y="566" type="curve" smooth="yes"/>
      <point x="387" y="566"/>
      <point x="370" y="583"/>
      <point x="370" y="604" type="curve" smooth="yes"/>
      <point x="370" y="623"/>
      <point x="387" y="640"/>
      <point x="408" y="640" type="curve" smooth="yes"/>
      <point x="427" y="640"/>
      <point x="444" y="623"/>
      <point x="444" y="604" type="curve" smooth="yes"/>
      <point x="444" y="583"/>
      <point x="427" y="566"/>
    </contour>
    <contour>
      <point x="477" y="440" type="curve" smooth="yes"/>
      <point x="451" y="440"/>
      <point x="430" y="461"/>
      <point x="430" y="487" type="curve" smooth="yes"/>
      <point x="430" y="513"/>
      <point x="451" y="534"/>
      <point x="477" y="534" type="curve" smooth="yes"/>
      <point x="503" y="534"/>
      <point x="524" y="513"/>
      <point x="524" y="487" type="curve" smooth="yes"/>
      <point x="524" y="461"/>
      <point x="503" y="440"/>
    </contour>
    <contour>
      <point x="504" y="312" type="curve" smooth="yes"/>
      <point x="482" y="312"/>
      <point x="465" y="329"/>
      <point x="465" y="351" type="curve" smooth="yes"/>
      <point x="465" y="372"/>
      <point x="482" y="389"/>
      <point x="504" y="389" type="curve" smooth="yes"/>
      <point x="525" y="389"/>
      <point x="542" y="372"/>
      <point x="542" y="351" type="curve" smooth="yes"/>
      <point x="542" y="329"/>
      <point x="525" y="312"/>
    </contour>
    <contour>
      <point x="373" y="-127" type="curve" smooth="yes"/>
      <point x="357" y="-22"/>
      <point x="338" y="79"/>
      <point x="318" y="176" type="curve" smooth="yes"/>
      <point x="310" y="214"/>
      <point x="302" y="241"/>
      <point x="273" y="236" type="curve" smooth="yes"/>
      <point x="247" y="232"/>
      <point x="247" y="206"/>
      <point x="252" y="168" type="curve" smooth="yes"/>
      <point x="265" y="67"/>
      <point x="281" y="-35"/>
      <point x="298" y="-136" type="curve" smooth="yes"/>
      <point x="306" y="-186"/>
      <point x="318" y="-210"/>
      <point x="347" y="-207" type="curve" smooth="yes"/>
      <point x="377" y="-204"/>
      <point x="380" y="-172"/>
    </contour>
    <contour>
      <point x="522" y="-18" type="curve" smooth="yes"/>
      <point x="502" y="23"/>
      <point x="481" y="60"/>
      <point x="461" y="92" type="curve" smooth="yes"/>
      <point x="445" y="117"/>
      <point x="422" y="122"/>
      <point x="406" y="114" type="curve" smooth="yes"/>
      <point x="391" y="106"/>
      <point x="381" y="91"/>
      <point x="394" y="60" type="curve" smooth="yes"/>
      <point x="411" y="20"/>
      <point x="429" y="-18"/>
      <point x="450" y="-54" type="curve" smooth="yes"/>
      <point x="471" y="-90"/>
      <point x="488" y="-108"/>
      <point x="517" y="-94" type="curve" smooth="yes"/>
      <point x="545" y="-81"/>
      <point x="542" y="-57"/>
    </contour>
  </outline>
</glyph>
<glyph name="T" format="2">
  <advance width="470"/>
  <unicode hex="0054"/>
  <unicode hex="0074"/>
  <guideline x="268" y="702" angle="3.7022"/>
  <anchor x="238" y="-10" name="bottom"/>
  <anchor x="223" y="10" name="cedilla"/>
  <anchor x="256" y="700" name="top"/>
  <outline>
    <contour>
      <point x="224" y="-10"/>
      <point x="233" y="-12"/>
      <point x="241" y="-12" type="curve" smooth="yes"/>
      <point x="249" y="-12"/>
      <point x="256" y="-9"/>
      <point x="262" y="-3" type="curve" smooth="yes"/>
      <point x="281" y="15"/>
      <point x="288" y="74"/>
      <point x="301" y="490" type="curve" smooth="yes"/>
      <point x="303" y="561"/>
      <point x="471" y="471"/>
      <point x="471" y="605" type="curve" smooth="yes"/>
      <point x="471" y="681"/>
      <point x="438" y="716"/>
      <point x="351" y="711" type="curve"/>
      <point x="360" y="616"/>
      <point x="350" y="597"/>
      <point x="327" y="597" type="curve" smooth="yes"/>
      <point x="306" y="597"/>
      <point x="297" y="608"/>
      <point x="293" y="707" type="curve"/>
      <point x="271" y="707"/>
      <point x="253" y="706"/>
      <point x="228" y="704" type="curve"/>
      <point x="236" y="608"/>
      <point x="231" y="575"/>
      <point x="200" y="575" type="curve" smooth="yes"/>
      <point x="173" y="575"/>
      <point x="166" y="600"/>
      <point x="164" y="699" type="curve"/>
      <point x="68" y="691"/>
      <point x="2" y="683"/>
      <point x="2" y="596" type="curve" smooth="yes"/>
      <point x="2" y="444"/>
      <point x="179" y="562"/>
      <point x="183" y="474" type="curve" smooth="yes"/>
      <point x="187" y="404"/>
      <point x="187" y="364"/>
      <point x="189" y="305" type="curve"/>
      <point x="189" y="305"/>
      <point x="190" y="289"/>
      <point x="191" y="270" type="curve" smooth="yes"/>
      <point x="192" y="253"/>
      <point x="192" y="238"/>
      <point x="192" y="238" type="curve"/>
      <point x="193" y="223"/>
      <point x="194" y="207"/>
      <point x="194" y="194" type="curve"/>
      <point x="194" y="194"/>
      <point x="194" y="180"/>
      <point x="194" y="166" type="curve" smooth="yes"/>
      <point x="194" y="150"/>
      <point x="195" y="135"/>
      <point x="195" y="135" type="curve"/>
      <point x="198" y="62"/>
      <point x="201" y="13"/>
      <point x="218" y="-4" type="curve" smooth="yes"/>
    </contour>
    <contour>
      <point x="101" y="365" type="curve" smooth="yes"/>
      <point x="127" y="365"/>
      <point x="148" y="386"/>
      <point x="148" y="412" type="curve" smooth="yes"/>
      <point x="148" y="438"/>
      <point x="127" y="459"/>
      <point x="101" y="459" type="curve" smooth="yes"/>
      <point x="75" y="459"/>
      <point x="54" y="438"/>
      <point x="54" y="412" type="curve" smooth="yes"/>
      <point x="54" y="386"/>
      <point x="75" y="365"/>
    </contour>
    <contour>
      <point x="258" y="335" type="line"/>
      <point x="379" y="337"/>
      <point x="413" y="338"/>
      <point x="413" y="373" type="curve" smooth="yes"/>
      <point x="413" y="411"/>
      <point x="385" y="413"/>
      <point x="258" y="411" type="curve"/>
    </contour>
    <contour>
      <point x="248" y="234" type="line"/>
      <point x="100" y="228"/>
      <point x="69" y="224"/>
      <point x="72" y="186" type="curve" smooth="yes"/>
      <point x="75" y="151"/>
      <point x="106" y="150"/>
      <point x="251" y="157" type="curve"/>
    </contour>
  </outline>
</glyph>
<glyph name="bracketleft" format="2">
  <advance width="342"/>
  <unicode hex="005B"/>
  <outline>
    <contour>
      <point x="89" y="-71" type="curve" smooth="yes"/>
      <point x="90" y="-134"/>
      <point x="123" y="-164"/>
      <point x="174" y="-162" type="curve" smooth="yes"/>
      <point x="217" y="-160"/>
      <point x="275" y="-153"/>
      <point x="315" y="-146" type="curve" smooth="yes"/>
      <point x="343" y="-141"/>
      <point x="363" y="-124"/>
      <point x="363" y="-99" type="curve" smooth="yes"/>
      <point x="363" y="-70"/>
      <point x="346" y="-42"/>
      <point x="310" y="-44" type="curve" smooth="yes"/>
      <point x="293" y="-45"/>
      <point x="279" y="-47"/>
      <point x="262" y="-48" type="curve" smooth="yes"/>
      <point x="242" y="-49"/>
      <point x="234" y="-27"/>
      <point x="231" y="13" type="curve" smooth="yes"/>
      <point x="214" y="246"/>
      <point x="195" y="496"/>
      <point x="177" y="715" type="curve" smooth="yes"/>
      <point x="175" y="737"/>
      <point x="186" y="748"/>
      <point x="207" y="754" type="curve" smooth="yes"/>
      <point x="238" y="763"/>
      <point x="279" y="769"/>
      <point x="312" y="778" type="curve" smooth="yes"/>
      <point x="334" y="784"/>
      <point x="346" y="799"/>
      <point x="346" y="829" type="curve" smooth="yes"/>
      <point x="346" y="854"/>
      <point x="328" y="867"/>
      <point x="297" y="867" type="curve" smooth="yes"/>
      <point x="269" y="867"/>
      <point x="204" y="863"/>
      <point x="157" y="857" type="curve" smooth="yes"/>
      <point x="117" y="852"/>
      <point x="93" y="830"/>
      <point x="92" y="782" type="curve" smooth="yes"/>
      <point x="87" y="501"/>
      <point x="86" y="215"/>
    </contour>
  </outline>
</glyph>
<glyph name="bracketright" format="2">
  <advance width="357"/>
  <unicode hex="005D"/>
  <outline>
    <contour>
      <point x="76" y="-188" type="curve" smooth="yes"/>
      <point x="100" y="-189"/>
      <point x="147" y="-188"/>
      <point x="192" y="-183" type="curve" smooth="yes"/>
      <point x="232" y="-179"/>
      <point x="258" y="-143"/>
      <point x="258" y="-74" type="curve" smooth="yes"/>
      <point x="259" y="179"/>
      <point x="259" y="467"/>
      <point x="251" y="709" type="curve" smooth="yes"/>
      <point x="249" y="780"/>
      <point x="231" y="813"/>
      <point x="184" y="815" type="curve" smooth="yes"/>
      <point x="156" y="816"/>
      <point x="95" y="813"/>
      <point x="59" y="809" type="curve" smooth="yes"/>
      <point x="24" y="805"/>
      <point x="5" y="791"/>
      <point x="5" y="769" type="curve" smooth="yes"/>
      <point x="5" y="747"/>
      <point x="17" y="736"/>
      <point x="43" y="733" type="curve" smooth="yes"/>
      <point x="62" y="731"/>
      <point x="86" y="732"/>
      <point x="106" y="729" type="curve" smooth="yes"/>
      <point x="133" y="725"/>
      <point x="148" y="707"/>
      <point x="147" y="658" type="curve" smooth="yes"/>
      <point x="144" y="454"/>
      <point x="144" y="179"/>
      <point x="141" y="-45" type="curve" smooth="yes"/>
      <point x="140" y="-91"/>
      <point x="128" y="-101"/>
      <point x="110" y="-102" type="curve" smooth="yes"/>
      <point x="89" y="-103"/>
      <point x="64" y="-105"/>
      <point x="45" y="-108" type="curve" smooth="yes"/>
      <point x="25" y="-111"/>
      <point x="8" y="-121"/>
      <point x="8" y="-147" type="curve" smooth="yes"/>
      <point x="8" y="-175"/>
      <point x="34" y="-186"/>
    </contour>
  </outline>
</glyph>
<glyph name="grave" format="2">
  <advance width="245"/>
  <unicode hex="0060"/>
  <outline>
    <contour>
      <point x="128" y="402" type="curve" smooth="yes"/>
      <point x="146" y="364"/>
      <point x="171" y="348"/>
      <point x="198" y="360" type="curve" smooth="yes"/>
      <point x="226" y="372"/>
      <point x="229" y="397"/>
      <point x="217" y="438" type="curve" smooth="yes"/>
      <point x="199" y="500"/>
      <point x="174" y="580"/>
      <point x="149" y="652" type="curve" smooth="yes"/>
      <point x="131" y="706"/>
      <point x="102" y="729"/>
      <point x="61" y="714" type="curve" smooth="yes"/>
      <point x="20" y="699"/>
      <point x="19" y="658"/>
      <point x="39" y="607" type="curve" smooth="yes"/>
      <point x="71" y="530"/>
      <point x="100" y="462"/>
    </contour>
  </outline>
</glyph>
<glyph name="braceleft" format="2">
  <advance width="390"/>
  <unicode hex="007B"/>
  <outline>
    <contour>
      <point x="7" y="379" type="curve" smooth="yes"/>
      <point x="7" y="344"/>
      <point x="24" y="318"/>
      <point x="60" y="301" type="curve" smooth="yes"/>
      <point x="95" y="285"/>
      <point x="106" y="255"/>
      <point x="103" y="216" type="curve" smooth="yes"/>
      <point x="98" y="148"/>
      <point x="65" y="73"/>
      <point x="55" y="-14" type="curve" smooth="yes"/>
      <point x="42" y="-125"/>
      <point x="121" y="-169"/>
      <point x="223" y="-169" type="curve" smooth="yes"/>
      <point x="303" y="-169"/>
      <point x="352" y="-155"/>
      <point x="352" y="-123" type="curve" smooth="yes"/>
      <point x="352" y="-95"/>
      <point x="337" y="-88"/>
      <point x="305" y="-88" type="curve" smooth="yes"/>
      <point x="265" y="-88"/>
      <point x="249" y="-71"/>
      <point x="249" y="-16" type="curve" smooth="yes"/>
      <point x="249" y="48"/>
      <point x="259" y="117"/>
      <point x="260" y="222" type="curve" smooth="yes"/>
      <point x="261" y="295"/>
      <point x="227" y="330"/>
      <point x="161" y="346" type="curve" smooth="yes"/>
      <point x="123" y="355"/>
      <point x="111" y="363"/>
      <point x="111" y="379" type="curve" smooth="yes"/>
      <point x="111" y="395"/>
      <point x="122" y="406"/>
      <point x="150" y="407" type="curve" smooth="yes"/>
      <point x="211" y="409"/>
      <point x="258" y="444"/>
      <point x="256" y="508" type="curve" smooth="yes"/>
      <point x="254" y="577"/>
      <point x="235" y="640"/>
      <point x="230" y="698" type="curve" smooth="yes"/>
      <point x="227" y="729"/>
      <point x="242" y="742"/>
      <point x="296" y="742" type="curve" smooth="yes"/>
      <point x="348" y="742"/>
      <point x="375" y="756"/>
      <point x="375" y="785" type="curve" smooth="yes"/>
      <point x="375" y="816"/>
      <point x="343" y="828"/>
      <point x="271" y="828" type="curve" smooth="yes"/>
      <point x="184" y="828"/>
      <point x="128" y="793"/>
      <point x="129" y="714" type="curve" smooth="yes"/>
      <point x="130" y="647"/>
      <point x="148" y="571"/>
      <point x="148" y="517" type="curve" smooth="yes"/>
      <point x="148" y="484"/>
      <point x="119" y="466"/>
      <point x="74" y="459" type="curve" smooth="yes"/>
      <point x="32" y="452"/>
      <point x="7" y="423"/>
    </contour>
    <contour>
      <point x="193" y="519" type="curve" smooth="yes"/>
      <point x="193" y="519"/>
      <point x="193" y="519"/>
      <point x="193" y="519" type="curve" smooth="yes"/>
      <point x="193" y="519"/>
      <point x="193" y="519"/>
      <point x="193" y="519" type="curve" smooth="yes"/>
      <point x="193" y="519"/>
      <point x="193" y="519"/>
      <point x="193" y="519" type="curve" smooth="yes"/>
      <point x="193" y="519"/>
      <point x="193" y="519"/>
    </contour>
    <contour>
      <point x="194" y="623" type="curve" smooth="yes"/>
      <point x="194" y="623"/>
      <point x="194" y="623"/>
      <point x="194" y="623" type="curve" smooth="yes"/>
      <point x="194" y="623"/>
      <point x="194" y="623"/>
      <point x="194" y="623" type="curve" smooth="yes"/>
      <point x="194" y="623"/>
      <point x="194" y="623"/>
      <point x="194" y="623" type="curve" smooth="yes"/>
      <point x="194" y="623"/>
      <point x="194" y="623"/>
    </contour>
    <contour>
      <point x="161" y="-48" type="curve" smooth="yes"/>
      <point x="134" y="-48"/>
      <point x="113" y="-27"/>
      <point x="113" y="0" type="curve" smooth="yes"/>
      <point x="113" y="26"/>
      <point x="134" y="47"/>
      <point x="161" y="47" type="curve" smooth="yes"/>
      <point x="187" y="47"/>
      <point x="208" y="26"/>
      <point x="208" y="0" type="curve" smooth="yes"/>
      <point x="208" y="-27"/>
      <point x="187" y="-48"/>
    </contour>
    <contour>
      <point x="175" y="92" type="curve" smooth="yes"/>
      <point x="152" y="92"/>
      <point x="134" y="111"/>
      <point x="134" y="134" type="curve" smooth="yes"/>
      <point x="134" y="156"/>
      <point x="152" y="174"/>
      <point x="175" y="174" type="curve" smooth="yes"/>
      <point x="198" y="174"/>
      <point x="216" y="156"/>
      <point x="216" y="134" type="curve" smooth="yes"/>
      <point x="216" y="111"/>
      <point x="198" y="92"/>
    </contour>
  </outline>
</glyph>
<glyph name="braceright" format="2">
  <advance width="404"/>
  <unicode hex="007D"/>
  <outline>
    <contour>
      <point x="366" y="375" type="curve" smooth="yes"/>
      <point x="366" y="420"/>
      <point x="342" y="461"/>
      <point x="282" y="478" type="curve" smooth="yes"/>
      <point x="233" y="491"/>
      <point x="220" y="505"/>
      <point x="219" y="537" type="curve" smooth="yes"/>
      <point x="216" y="604"/>
      <point x="290" y="674"/>
      <point x="287" y="739" type="curve" smooth="yes"/>
      <point x="285" y="795"/>
      <point x="252" y="840"/>
      <point x="124" y="840" type="curve" smooth="yes"/>
      <point x="71" y="840"/>
      <point x="48" y="830"/>
      <point x="48" y="795" type="curve" smooth="yes"/>
      <point x="48" y="763"/>
      <point x="73" y="754"/>
      <point x="113" y="754" type="curve" smooth="yes"/>
      <point x="155" y="754"/>
      <point x="175" y="745"/>
      <point x="176" y="716" type="curve" smooth="yes"/>
      <point x="179" y="666"/>
      <point x="111" y="593"/>
      <point x="116" y="506" type="curve" smooth="yes"/>
      <point x="119" y="455"/>
      <point x="157" y="424"/>
      <point x="212" y="411" type="curve" smooth="yes"/>
      <point x="249" y="404"/>
      <point x="269" y="387"/>
      <point x="269" y="367" type="curve" smooth="yes"/>
      <point x="269" y="346"/>
      <point x="245" y="326"/>
      <point x="193" y="307" type="curve" smooth="yes"/>
      <point x="139" y="288"/>
      <point x="122" y="257"/>
      <point x="123" y="199" type="curve" smooth="yes"/>
      <point x="124" y="144"/>
      <point x="142" y="77"/>
      <point x="144" y="10" type="curve" smooth="yes"/>
      <point x="145" y="-32"/>
      <point x="117" y="-49"/>
      <point x="47" y="-49" type="curve" smooth="yes"/>
      <point x="12" y="-49"/>
      <point x="-8" y="-57"/>
      <point x="-8" y="-83" type="curve" smooth="yes"/>
      <point x="-8" y="-118"/>
      <point x="36" y="-138"/>
      <point x="149" y="-138" type="curve" smooth="yes"/>
      <point x="276" y="-138"/>
      <point x="354" y="-97"/>
      <point x="345" y="10" type="curve" smooth="yes"/>
      <point x="338" y="88"/>
      <point x="263" y="160"/>
      <point x="248" y="191" type="curve" smooth="yes"/>
      <point x="231" y="224"/>
      <point x="241" y="248"/>
      <point x="274" y="262" type="curve" smooth="yes"/>
      <point x="342" y="292"/>
      <point x="366" y="326"/>
    </contour>
    <contour>
      <point x="212" y="661" type="curve" smooth="yes"/>
      <point x="198" y="665"/>
      <point x="187" y="661"/>
      <point x="179" y="641" type="curve" smooth="yes"/>
      <point x="173" y="617"/>
      <point x="179" y="606"/>
      <point x="189" y="602" type="curve" smooth="yes"/>
      <point x="194" y="600"/>
      <point x="198" y="599"/>
      <point x="203" y="598" type="curve" smooth="yes"/>
      <point x="215" y="595"/>
      <point x="224" y="599"/>
      <point x="230" y="621" type="curve" smooth="yes"/>
      <point x="236" y="642"/>
      <point x="233" y="655"/>
      <point x="226" y="657" type="curve" smooth="yes"/>
      <point x="223" y="659"/>
      <point x="217" y="660"/>
    </contour>
    <contour>
      <point x="231" y="-12" type="curve" smooth="yes"/>
      <point x="203" y="-12"/>
      <point x="183" y="8"/>
      <point x="183" y="36" type="curve" smooth="yes"/>
      <point x="183" y="63"/>
      <point x="203" y="83"/>
      <point x="231" y="83" type="curve" smooth="yes"/>
      <point x="256" y="83"/>
      <point x="278" y="63"/>
      <point x="278" y="36" type="curve" smooth="yes"/>
      <point x="278" y="8"/>
      <point x="256" y="-12"/>
    </contour>
  </outline>
</glyph>
<glyph name="emdash" format="2">
  <advance width="558"/>
  <unicode hex="2014"/>
  <outline>
    <contour>
      <point x="88" y="357" type="curve" smooth="yes"/>
      <point x="51" y="354"/>
      <point x="34" y="340"/>
      <point x="35" y="313" type="curve" smooth="yes"/>
      <point x="36" y="284"/>
      <point x="48" y="269"/>
      <point x="84" y="268" type="curve" smooth="yes"/>
      <point x="177" y="266"/>
      <point x="343" y="268"/>
      <point x="450" y="272" type="curve" smooth="yes"/>
      <point x="499" y="274"/>
      <point x="527" y="286"/>
      <point x="527" y="322" type="curve" smooth="yes"/>
      <point x="527" y="352"/>
      <point x="509" y="371"/>
      <point x="463" y="370" type="curve" smooth="yes"/>
      <point x="346" y="369"/>
      <point x="207" y="364"/>
    </contour>
  </outline>
</glyph>
<glyph name="quoteleft" format="2">
  <advance width="260"/>
  <unicode hex="2018"/>
  <outline>
    <contour>
      <point x="215" y="646" type="curve" smooth="yes"/>
      <point x="267" y="669"/>
      <point x="233" y="729"/>
      <point x="187" y="710" type="curve" smooth="yes"/>
      <point x="95" y="673"/>
      <point x="24" y="592"/>
      <point x="24" y="443" type="curve" smooth="yes"/>
      <point x="24" y="360"/>
      <point x="58" y="312"/>
      <point x="134" y="312" type="curve" smooth="yes"/>
      <point x="198" y="312"/>
      <point x="235" y="350"/>
      <point x="235" y="407" type="curve" smooth="yes"/>
      <point x="235" y="518"/>
      <point x="125" y="480"/>
      <point x="125" y="534" type="curve" smooth="yes"/>
      <point x="125" y="564"/>
      <point x="154" y="619"/>
    </contour>
    <contour>
      <point x="134" y="451" type="curve" smooth="yes"/>
      <point x="158" y="451"/>
      <point x="177" y="432"/>
      <point x="177" y="408" type="curve" smooth="yes"/>
      <point x="177" y="384"/>
      <point x="158" y="365"/>
      <point x="134" y="365" type="curve" smooth="yes"/>
      <point x="110" y="365"/>
      <point x="91" y="384"/>
      <point x="91" y="408" type="curve" smooth="yes"/>
      <point x="91" y="432"/>
      <point x="110" y="451"/>
    </contour>
    <contour>
      <point x="133" y="576" type="curve" smooth="yes"/>
      <point x="175" y="550"/>
      <point x="196" y="542"/>
      <point x="209" y="558" type="curve" smooth="yes"/>
      <point x="221" y="574"/>
      <point x="212" y="594"/>
      <point x="173" y="624" type="curve" smooth="yes"/>
      <point x="156" y="637"/>
      <point x="138" y="651"/>
      <point x="121" y="662" type="curve" smooth="yes"/>
      <point x="71" y="695"/>
      <point x="51" y="700"/>
      <point x="39" y="684" type="curve" smooth="yes"/>
      <point x="27" y="668"/>
      <point x="32" y="644"/>
      <point x="73" y="615" type="curve" smooth="yes"/>
      <point x="90" y="603"/>
      <point x="115" y="587"/>
    </contour>
  </outline>
</glyph>
<glyph name="guilsinglleft" format="2">
  <advance width="331"/>
  <unicode hex="2039"/>
  <outline>
    <contour>
      <point x="212" y="41" type="curve" smooth="yes"/>
      <point x="259" y="-19"/>
      <point x="342" y="60"/>
      <point x="294" y="115" type="curve" smooth="yes"/>
      <point x="257" y="158"/>
      <point x="191" y="229"/>
      <point x="153" y="270" type="curve" smooth="yes"/>
      <point x="137" y="288"/>
      <point x="138" y="308"/>
      <point x="154" y="328" type="curve" smooth="yes"/>
      <point x="186" y="367"/>
      <point x="246" y="437"/>
      <point x="274" y="472" type="curve" smooth="yes"/>
      <point x="311" y="519"/>
      <point x="251" y="570"/>
      <point x="213" y="529" type="curve" smooth="yes"/>
      <point x="163" y="474"/>
      <point x="101" y="405"/>
      <point x="58" y="354" type="curve" smooth="yes"/>
      <point x="32" y="323"/>
      <point x="30" y="284"/>
      <point x="56" y="248" type="curve" smooth="yes"/>
      <point x="104" y="181"/>
      <point x="157" y="111"/>
    </contour>
  </outline>
</glyph>
<glyph name="leftRightArrow" format="2">
  <advance width="680"/>
  <unicode hex="2194"/>
  <outline>
    <contour>
      <point x="38" y="272" type="curve" smooth="yes"/>
      <point x="69" y="214"/>
      <point x="115" y="140"/>
      <point x="160" y="76" type="curve" smooth="yes"/>
      <point x="189" y="36"/>
      <point x="217" y="29"/>
      <point x="249" y="52" type="curve" smooth="yes"/>
      <point x="278" y="74"/>
      <point x="278" y="109"/>
      <point x="252" y="143" type="curve" smooth="yes"/>
      <point x="212" y="195"/>
      <point x="172" y="238"/>
      <point x="144" y="280" type="curve" smooth="yes"/>
      <point x="128" y="304"/>
      <point x="139" y="319"/>
      <point x="171" y="321" type="curve" smooth="yes"/>
      <point x="266" y="326"/>
      <point x="391" y="323"/>
      <point x="516" y="317" type="curve" smooth="yes"/>
      <point x="540" y="315"/>
      <point x="547" y="301"/>
      <point x="533" y="283" type="curve" smooth="yes"/>
      <point x="485" y="224"/>
      <point x="448" y="191"/>
      <point x="417" y="146" type="curve" smooth="yes"/>
      <point x="389" y="107"/>
      <point x="390" y="69"/>
      <point x="418" y="47" type="curve" smooth="yes"/>
      <point x="445" y="26"/>
      <point x="479" y="24"/>
      <point x="508" y="66" type="curve" smooth="yes"/>
      <point x="552" y="130"/>
      <point x="597" y="202"/>
      <point x="641" y="287" type="curve" smooth="yes"/>
      <point x="660" y="324"/>
      <point x="667" y="377"/>
      <point x="649" y="417" type="curve" smooth="yes"/>
      <point x="609" y="508"/>
      <point x="566" y="595"/>
      <point x="530" y="667" type="curve" smooth="yes"/>
      <point x="511" y="704"/>
      <point x="477" y="723"/>
      <point x="441" y="700" type="curve" smooth="yes"/>
      <point x="405" y="677"/>
      <point x="414" y="639"/>
      <point x="438" y="597" type="curve" smooth="yes"/>
      <point x="470" y="540"/>
      <point x="499" y="496"/>
      <point x="519" y="456" type="curve" smooth="yes"/>
      <point x="530" y="434"/>
      <point x="526" y="418"/>
      <point x="507" y="417" type="curve" smooth="yes"/>
      <point x="391" y="410"/>
      <point x="269" y="410"/>
      <point x="165" y="412" type="curve" smooth="yes"/>
      <point x="140" y="412"/>
      <point x="130" y="427"/>
      <point x="139" y="445" type="curve" smooth="yes"/>
      <point x="156" y="477"/>
      <point x="191" y="524"/>
      <point x="222" y="576" type="curve" smooth="yes"/>
      <point x="243" y="611"/>
      <point x="235" y="650"/>
      <point x="202" y="666" type="curve" smooth="yes"/>
      <point x="164" y="684"/>
      <point x="130" y="671"/>
      <point x="110" y="626" type="curve" smooth="yes"/>
      <point x="84" y="569"/>
      <point x="44" y="461"/>
      <point x="30" y="406" type="curve" smooth="yes"/>
      <point x="17" y="355"/>
      <point x="19" y="308"/>
    </contour>
  </outline>
</glyph>
<glyph name="northWestArrow" format="2">
  <advance width="680"/>
  <unicode hex="2196"/>
  <outline>
    <contour>
      <point x="601" y="48" type="curve" smooth="yes"/>
      <point x="629" y="76"/>
      <point x="625" y="119"/>
      <point x="586" y="166" type="curve" smooth="yes"/>
      <point x="489" y="281"/>
      <point x="373" y="387"/>
      <point x="272" y="512" type="curve" smooth="yes"/>
      <point x="256" y="531"/>
      <point x="266" y="548"/>
      <point x="292" y="548" type="curve" smooth="yes"/>
      <point x="345" y="548"/>
      <point x="414" y="537"/>
      <point x="500" y="536" type="curve" smooth="yes"/>
      <point x="542" y="536"/>
      <point x="574" y="552"/>
      <point x="574" y="586" type="curve" smooth="yes"/>
      <point x="574" y="618"/>
      <point x="554" y="640"/>
      <point x="502" y="644" type="curve" smooth="yes"/>
      <point x="417" y="650"/>
      <point x="260" y="648"/>
      <point x="168" y="641" type="curve" smooth="yes"/>
      <point x="118" y="637"/>
      <point x="84" y="600"/>
      <point x="82" y="540" type="curve" smooth="yes"/>
      <point x="77" y="433"/>
      <point x="74" y="294"/>
      <point x="76" y="189" type="curve" smooth="yes"/>
      <point x="77" y="128"/>
      <point x="99" y="100"/>
      <point x="148" y="100" type="curve" smooth="yes"/>
      <point x="193" y="100"/>
      <point x="221" y="136"/>
      <point x="214" y="190" type="curve" smooth="yes"/>
      <point x="206" y="253"/>
      <point x="177" y="372"/>
      <point x="166" y="450" type="curve" smooth="yes"/>
      <point x="163" y="474"/>
      <point x="181" y="482"/>
      <point x="197" y="463" type="curve" smooth="yes"/>
      <point x="302" y="336"/>
      <point x="393" y="178"/>
      <point x="491" y="57" type="curve" smooth="yes"/>
      <point x="525" y="15"/>
      <point x="567" y="14"/>
    </contour>
  </outline>
</glyph>
<glyph name="northEastArrow" format="2">
  <advance width="680"/>
  <unicode hex="2197"/>
  <outline>
    <contour>
      <point x="88" y="46" type="curve" smooth="yes"/>
      <point x="114" y="20"/>
      <point x="162" y="18"/>
      <point x="198" y="56" type="curve" smooth="yes"/>
      <point x="298" y="162"/>
      <point x="395" y="316"/>
      <point x="502" y="431" type="curve" smooth="yes"/>
      <point x="519" y="449"/>
      <point x="535" y="442"/>
      <point x="533" y="418" type="curve" smooth="yes"/>
      <point x="528" y="325"/>
      <point x="513" y="246"/>
      <point x="509" y="155" type="curve" smooth="yes"/>
      <point x="506" y="102"/>
      <point x="533" y="79"/>
      <point x="565" y="79" type="curve" smooth="yes"/>
      <point x="596" y="79"/>
      <point x="621" y="101"/>
      <point x="622" y="157" type="curve" smooth="yes"/>
      <point x="624" y="266"/>
      <point x="622" y="392"/>
      <point x="615" y="517" type="curve" smooth="yes"/>
      <point x="611" y="581"/>
      <point x="570" y="614"/>
      <point x="520" y="619" type="curve" smooth="yes"/>
      <point x="421" y="629"/>
      <point x="262" y="634"/>
      <point x="177" y="632" type="curve" smooth="yes"/>
      <point x="125" y="631"/>
      <point x="104" y="606"/>
      <point x="104" y="566" type="curve" smooth="yes"/>
      <point x="104" y="533"/>
      <point x="133" y="512"/>
      <point x="180" y="513" type="curve" smooth="yes"/>
      <point x="266" y="515"/>
      <point x="350" y="526"/>
      <point x="405" y="527" type="curve" smooth="yes"/>
      <point x="437" y="528"/>
      <point x="439" y="506"/>
      <point x="425" y="491" type="curve" smooth="yes"/>
      <point x="314" y="365"/>
      <point x="190" y="268"/>
      <point x="87" y="141" type="curve" smooth="yes"/>
      <point x="63" y="111"/>
      <point x="63" y="71"/>
    </contour>
  </outline>
</glyph>
<glyph name="border_1" format="2">
  <advance width="732"/>
  <unicode hex="E000"/>
  <outline>
    <contour>
      <point x="90" y="343" type="curve" smooth="yes"/>
      <point x="44" y="323"/>
      <point x="21" y="302"/>
      <point x="29" y="275" type="curve" smooth="yes"/>
      <point x="37" y="247"/>
      <point x="63" y="240"/>
      <point x="118" y="253" type="curve" smooth="yes"/>
      <point x="187" y="269"/>
      <point x="262" y="298"/>
      <point x="333" y="314" type="curve" smooth="yes"/>
      <point x="367" y="322"/>
      <point x="380" y="316"/>
      <point x="386" y="284" type="curve" smooth="yes"/>
      <point x="396" y="233"/>
      <point x="397" y="177"/>
      <point x="408" y="121" type="curve" smooth="yes"/>
      <point x="420" y="59"/>
      <point x="469" y="44"/>
      <point x="532" y="67" type="curve" smooth="yes"/>
      <point x="572" y="82"/>
      <point x="616" y="104"/>
      <point x="652" y="127" type="curve" smooth="yes"/>
      <point x="695" y="154"/>
      <point x="718" y="189"/>
      <point x="698" y="231" type="curve" smooth="yes"/>
      <point x="680" y="270"/>
      <point x="643" y="272"/>
      <point x="605" y="258" type="curve" smooth="yes"/>
      <point x="578" y="248"/>
      <point x="552" y="237"/>
      <point x="531" y="231" type="curve" smooth="yes"/>
      <point x="510" y="225"/>
      <point x="494" y="225"/>
      <point x="488" y="251" type="curve" smooth="yes"/>
      <point x="480" y="287"/>
      <point x="480" y="323"/>
      <point x="472" y="363" type="curve" smooth="yes"/>
      <point x="460" y="422"/>
      <point x="418" y="450"/>
      <point x="344" y="430" type="curve" smooth="yes"/>
      <point x="257" y="407"/>
      <point x="173" y="379"/>
    </contour>
    <contour>
      <point x="492" y="89" type="curve" smooth="yes"/>
      <point x="520" y="89"/>
      <point x="544" y="112"/>
      <point x="544" y="141" type="curve" smooth="yes"/>
      <point x="544" y="169"/>
      <point x="520" y="193"/>
      <point x="492" y="193" type="curve" smooth="yes"/>
      <point x="463" y="193"/>
      <point x="440" y="169"/>
      <point x="440" y="141" type="curve" smooth="yes"/>
      <point x="440" y="112"/>
      <point x="463" y="89"/>
    </contour>
    <contour>
      <point x="271" y="100" type="curve" smooth="yes"/>
      <point x="312" y="100"/>
      <point x="345" y="133"/>
      <point x="345" y="173" type="curve" smooth="yes"/>
      <point x="345" y="214"/>
      <point x="312" y="247"/>
      <point x="271" y="247" type="curve" smooth="yes"/>
      <point x="231" y="247"/>
      <point x="198" y="214"/>
      <point x="198" y="173" type="curve" smooth="yes"/>
      <point x="198" y="133"/>
      <point x="231" y="100"/>
    </contour>
  </outline>
</glyph>
<glyph name="border_7" format="2">
  <advance width="491"/>
  <unicode hex="E006"/>
  <outline>
    <contour>
      <point x="75" y="-37" type="curve" smooth="yes"/>
      <point x="54" y="-36"/>
      <point x="43" y="-29"/>
      <point x="43" y="-12" type="curve" smooth="yes"/>
      <point x="43" y="3"/>
      <point x="53" y="12"/>
      <point x="71" y="16" type="curve" smooth="yes"/>
      <point x="144" y="34"/>
      <point x="219" y="46"/>
      <point x="291" y="64" type="curve" smooth="yes"/>
      <point x="306" y="68"/>
      <point x="313" y="73"/>
      <point x="313" y="85" type="curve" smooth="yes"/>
      <point x="313" y="98"/>
      <point x="305" y="104"/>
      <point x="289" y="106" type="curve" smooth="yes"/>
      <point x="225" y="116"/>
      <point x="162" y="118"/>
      <point x="98" y="129" type="curve" smooth="yes"/>
      <point x="80" y="132"/>
      <point x="71" y="139"/>
      <point x="71" y="154" type="curve" smooth="yes"/>
      <point x="71" y="170"/>
      <point x="79" y="176"/>
      <point x="99" y="180" type="curve" smooth="yes"/>
      <point x="170" y="195"/>
      <point x="246" y="198"/>
      <point x="316" y="212" type="curve" smooth="yes"/>
      <point x="333" y="215"/>
      <point x="342" y="223"/>
      <point x="342" y="239" type="curve" smooth="yes"/>
      <point x="342" y="253"/>
      <point x="333" y="260"/>
      <point x="316" y="263" type="curve" smooth="yes"/>
      <point x="255" y="275"/>
      <point x="195" y="277"/>
      <point x="137" y="288" type="curve" smooth="yes"/>
      <point x="120" y="291"/>
      <point x="110" y="297"/>
      <point x="110" y="311" type="curve" smooth="yes"/>
      <point x="110" y="326"/>
      <point x="120" y="331"/>
      <point x="137" y="335" type="curve" smooth="yes"/>
      <point x="191" y="348"/>
      <point x="250" y="352"/>
      <point x="307" y="366" type="curve" smooth="yes"/>
      <point x="323" y="370"/>
      <point x="331" y="376"/>
      <point x="331" y="389" type="curve" smooth="yes"/>
      <point x="331" y="403"/>
      <point x="323" y="411"/>
      <point x="308" y="413" type="curve" smooth="yes"/>
      <point x="231" y="425"/>
      <point x="150" y="430"/>
      <point x="77" y="442" type="curve" smooth="yes"/>
      <point x="57" y="445"/>
      <point x="49" y="452"/>
      <point x="48" y="467" type="curve" smooth="yes"/>
      <point x="48" y="482"/>
      <point x="58" y="491"/>
      <point x="77" y="494" type="curve" smooth="yes"/>
      <point x="156" y="506"/>
      <point x="242" y="511"/>
      <point x="323" y="526" type="curve" smooth="yes"/>
      <point x="340" y="529"/>
      <point x="348" y="536"/>
      <point x="348" y="549" type="curve" smooth="yes"/>
      <point x="348" y="563"/>
      <point x="338" y="570"/>
      <point x="321" y="574" type="curve" smooth="yes"/>
      <point x="245" y="592"/>
      <point x="168" y="598"/>
      <point x="88" y="615" type="curve" smooth="yes"/>
      <point x="71" y="619"/>
      <point x="58" y="624"/>
      <point x="58" y="642" type="curve" smooth="yes"/>
      <point x="58" y="658"/>
      <point x="71" y="666"/>
      <point x="91" y="668" type="curve" smooth="yes"/>
      <point x="188" y="678"/>
      <point x="284" y="681"/>
      <point x="381" y="678" type="curve" smooth="yes"/>
      <point x="422" y="677"/>
      <point x="444" y="657"/>
      <point x="447" y="608" type="curve" smooth="yes"/>
      <point x="459" y="426"/>
      <point x="460" y="237"/>
      <point x="457" y="51" type="curve" smooth="yes"/>
      <point x="456" y="-13"/>
      <point x="427" y="-31"/>
      <point x="375" y="-34" type="curve" smooth="yes"/>
      <point x="275" y="-40"/>
      <point x="174" y="-41"/>
    </contour>
  </outline>
</glyph>
<glyph name="border_8" format="2">
  <advance width="685"/>
  <unicode hex="E007"/>
  <outline>
    <contour>
      <point x="35" y="530" type="curve" smooth="yes"/>
      <point x="54" y="530"/>
      <point x="64" y="537"/>
      <point x="64" y="552" type="curve" smooth="yes"/>
      <point x="64" y="567"/>
      <point x="53" y="584"/>
      <point x="53" y="603" type="curve" smooth="yes"/>
      <point x="53" y="634"/>
      <point x="77" y="652"/>
      <point x="117" y="663" type="curve" smooth="yes"/>
      <point x="156" y="676"/>
      <point x="209" y="704"/>
      <point x="209" y="734" type="curve" smooth="yes"/>
      <point x="209" y="744"/>
      <point x="200" y="754"/>
      <point x="189" y="754" type="curve" smooth="yes"/>
      <point x="174" y="754"/>
      <point x="166" y="748"/>
      <point x="155" y="736" type="curve" smooth="yes"/>
      <point x="144" y="723"/>
      <point x="127" y="711"/>
      <point x="73" y="695" type="curve" smooth="yes"/>
      <point x="27" y="684"/>
      <point x="-12" y="658"/>
      <point x="-12" y="610" type="curve" smooth="yes"/>
      <point x="-12" y="574"/>
      <point x="6" y="530"/>
    </contour>
    <contour>
      <point x="32" y="20" type="curve" smooth="yes"/>
      <point x="54" y="-3"/>
      <point x="86" y="48"/>
      <point x="132" y="63" type="curve" smooth="yes"/>
      <point x="163" y="74"/>
      <point x="210" y="68"/>
      <point x="218" y="77" type="curve" smooth="yes"/>
      <point x="224" y="86"/>
      <point x="226" y="98"/>
      <point x="215" y="108" type="curve" smooth="yes"/>
      <point x="202" y="120"/>
      <point x="157" y="123"/>
      <point x="121" y="114" type="curve" smooth="yes"/>
      <point x="91" y="106"/>
      <point x="56" y="85"/>
      <point x="31" y="55" type="curve" smooth="yes"/>
      <point x="22" y="44"/>
      <point x="22" y="32"/>
    </contour>
    <contour>
      <point x="170" y="159" type="curve" smooth="yes"/>
      <point x="229" y="154"/>
      <point x="261" y="195"/>
      <point x="264" y="228" type="curve" smooth="yes"/>
      <point x="265" y="240"/>
      <point x="256" y="249"/>
      <point x="246" y="249" type="curve" smooth="yes"/>
      <point x="211" y="253"/>
      <point x="210" y="200"/>
      <point x="174" y="203" type="curve" smooth="yes"/>
      <point x="124" y="207"/>
      <point x="103" y="257"/>
      <point x="43" y="262" type="curve" smooth="yes"/>
      <point x="25" y="264"/>
      <point x="14" y="255"/>
      <point x="13" y="244" type="curve" smooth="yes"/>
      <point x="11" y="210"/>
      <point x="43" y="214"/>
      <point x="83" y="189" type="curve" smooth="yes"/>
      <point x="119" y="165"/>
      <point x="143" y="162"/>
    </contour>
    <contour>
      <point x="168" y="300" type="curve" smooth="yes"/>
      <point x="204" y="308"/>
      <point x="223" y="318"/>
      <point x="219" y="336" type="curve" smooth="yes"/>
      <point x="217" y="348"/>
      <point x="203" y="351"/>
      <point x="177" y="348" type="curve" smooth="yes"/>
      <point x="140" y="344"/>
      <point x="122" y="351"/>
      <point x="117" y="371" type="curve" smooth="yes"/>
      <point x="109" y="412"/>
      <point x="162" y="429"/>
      <point x="157" y="453" type="curve" smooth="yes"/>
      <point x="155" y="464"/>
      <point x="146" y="469"/>
      <point x="134" y="467" type="curve" smooth="yes"/>
      <point x="108" y="462"/>
      <point x="51" y="411"/>
      <point x="64" y="349" type="curve" smooth="yes"/>
      <point x="72" y="309"/>
      <point x="108" y="288"/>
    </contour>
    <contour>
      <point x="308" y="97" type="curve" smooth="yes"/>
      <point x="342" y="85"/>
      <point x="387" y="136"/>
      <point x="402" y="177" type="curve" smooth="yes"/>
      <point x="418" y="220"/>
      <point x="399" y="252"/>
      <point x="365" y="265" type="curve" smooth="yes"/>
      <point x="346" y="272"/>
      <point x="332" y="268"/>
      <point x="327" y="255" type="curve" smooth="yes"/>
      <point x="323" y="243"/>
      <point x="329" y="234"/>
      <point x="344" y="225" type="curve" smooth="yes"/>
      <point x="356" y="218"/>
      <point x="363" y="210"/>
      <point x="359" y="199" type="curve" smooth="yes"/>
      <point x="349" y="172"/>
      <point x="309" y="163"/>
      <point x="295" y="126" type="curve" smooth="yes"/>
      <point x="289" y="110"/>
      <point x="295" y="102"/>
    </contour>
    <contour>
      <point x="526" y="1" type="curve" smooth="yes"/>
      <point x="537" y="-6"/>
      <point x="552" y="1"/>
      <point x="560" y="14" type="curve" smooth="yes"/>
      <point x="579" y="48"/>
      <point x="583" y="79"/>
      <point x="563" y="106" type="curve" smooth="yes"/>
      <point x="543" y="131"/>
      <point x="499" y="146"/>
      <point x="475" y="147" type="curve" smooth="yes"/>
      <point x="462" y="148"/>
      <point x="449" y="145"/>
      <point x="445" y="130" type="curve" smooth="yes"/>
      <point x="442" y="114"/>
      <point x="449" y="107"/>
      <point x="465" y="103" type="curve" smooth="yes"/>
      <point x="482" y="98"/>
      <point x="499" y="98"/>
      <point x="514" y="91" type="curve" smooth="yes"/>
      <point x="533" y="83"/>
      <point x="533" y="53"/>
      <point x="523" y="34" type="curve" smooth="yes"/>
      <point x="514" y="19"/>
      <point x="513" y="8"/>
    </contour>
    <contour>
      <point x="453" y="276" type="curve" smooth="yes"/>
      <point x="472" y="279"/>
      <point x="475" y="300"/>
      <point x="468" y="340" type="curve" smooth="yes"/>
      <point x="461" y="381"/>
      <point x="442" y="418"/>
      <point x="412" y="413" type="curve" smooth="yes"/>
      <point x="394" y="409"/>
      <point x="390" y="399"/>
      <point x="373" y="396" type="curve" smooth="yes"/>
      <point x="341" y="390"/>
      <point x="342" y="431"/>
      <point x="313" y="426" type="curve" smooth="yes"/>
      <point x="298" y="423"/>
      <point x="295" y="408"/>
      <point x="297" y="392" type="curve" smooth="yes"/>
      <point x="303" y="363"/>
      <point x="326" y="345"/>
      <point x="377" y="344" type="curve" smooth="yes"/>
      <point x="409" y="343"/>
      <point x="416" y="336"/>
      <point x="421" y="308" type="curve" smooth="yes"/>
      <point x="425" y="287"/>
      <point x="435" y="273"/>
    </contour>
    <contour>
      <point x="671" y="139" type="curve" smooth="yes"/>
      <point x="688" y="143"/>
      <point x="697" y="149"/>
      <point x="695" y="161" type="curve" smooth="yes"/>
      <point x="694" y="169"/>
      <point x="690" y="175"/>
      <point x="675" y="182" type="curve" smooth="yes"/>
      <point x="652" y="192"/>
      <point x="630" y="196"/>
      <point x="613" y="215" type="curve" smooth="yes"/>
      <point x="589" y="240"/>
      <point x="577" y="279"/>
      <point x="563" y="305" type="curve" smooth="yes"/>
      <point x="558" y="317"/>
      <point x="550" y="322"/>
      <point x="544" y="321" type="curve" smooth="yes"/>
      <point x="535" y="320"/>
      <point x="527" y="313"/>
      <point x="530" y="287" type="curve" smooth="yes"/>
      <point x="533" y="257"/>
      <point x="543" y="192"/>
      <point x="574" y="169" type="curve" smooth="yes"/>
      <point x="595" y="149"/>
      <point x="641" y="137"/>
    </contour>
    <contour>
      <point x="350" y="494" type="curve" smooth="yes"/>
      <point x="384" y="487"/>
      <point x="429" y="497"/>
      <point x="438" y="535" type="curve" smooth="yes"/>
      <point x="441" y="547"/>
      <point x="436" y="556"/>
      <point x="425" y="559" type="curve" smooth="yes"/>
      <point x="403" y="563"/>
      <point x="392" y="544"/>
      <point x="363" y="548" type="curve" smooth="yes"/>
      <point x="317" y="557"/>
      <point x="302" y="605"/>
      <point x="258" y="614" type="curve" smooth="yes"/>
      <point x="210" y="624"/>
      <point x="152" y="593"/>
      <point x="147" y="568" type="curve" smooth="yes"/>
      <point x="143" y="555"/>
      <point x="152" y="546"/>
      <point x="166" y="543" type="curve" smooth="yes"/>
      <point x="198" y="536"/>
      <point x="208" y="576"/>
      <point x="243" y="569" type="curve" smooth="yes"/>
      <point x="273" y="563"/>
      <point x="281" y="509"/>
    </contour>
    <contour>
      <point x="644" y="360" type="curve" smooth="yes"/>
      <point x="656" y="363"/>
      <point x="663" y="371"/>
      <point x="660" y="384" type="curve" smooth="yes"/>
      <point x="643" y="446"/>
      <point x="578" y="425"/>
      <point x="569" y="461" type="curve" smooth="yes"/>
      <point x="563" y="483"/>
      <point x="584" y="488"/>
      <point x="578" y="510" type="curve" smooth="yes"/>
      <point x="575" y="521"/>
      <point x="565" y="526"/>
      <point x="553" y="523" type="curve" smooth="yes"/>
      <point x="525" y="515"/>
      <point x="501" y="484"/>
      <point x="510" y="450" type="curve" smooth="yes"/>
      <point x="527" y="387"/>
      <point x="577" y="420"/>
      <point x="611" y="373" type="curve" smooth="yes"/>
      <point x="619" y="363"/>
      <point x="629" y="356"/>
    </contour>
    <contour>
      <point x="303" y="653" type="curve" smooth="yes"/>
      <point x="339" y="653"/>
      <point x="360" y="708"/>
      <point x="389" y="708" type="curve" smooth="yes"/>
      <point x="412" y="708"/>
      <point x="415" y="695"/>
      <point x="424" y="684" type="curve" smooth="yes"/>
      <point x="430" y="676"/>
      <point x="436" y="673"/>
      <point x="447" y="673" type="curve" smooth="yes"/>
      <point x="458" y="673"/>
      <point x="469" y="681"/>
      <point x="469" y="696" type="curve" smooth="yes"/>
      <point x="469" y="726"/>
      <point x="441" y="762"/>
      <point x="392" y="762" type="curve" smooth="yes"/>
      <point x="342" y="762"/>
      <point x="285" y="725"/>
      <point x="285" y="676" type="curve" smooth="yes"/>
      <point x="285" y="661"/>
      <point x="292" y="653"/>
    </contour>
    <contour>
      <point x="534" y="573" type="curve" smooth="yes"/>
      <point x="554" y="573"/>
      <point x="575" y="594"/>
      <point x="595" y="634" type="curve" smooth="yes"/>
      <point x="609" y="661"/>
      <point x="650" y="665"/>
      <point x="650" y="700" type="curve" smooth="yes"/>
      <point x="650" y="716"/>
      <point x="638" y="729"/>
      <point x="619" y="729" type="curve" smooth="yes"/>
      <point x="579" y="729"/>
      <point x="583" y="683"/>
      <point x="556" y="656" type="curve" smooth="yes"/>
      <point x="530" y="627"/>
      <point x="500" y="636"/>
      <point x="500" y="604" type="curve" smooth="yes"/>
      <point x="500" y="584"/>
      <point x="512" y="573"/>
    </contour>
  </outline>
</glyph>
<glyph name="eye" format="2">
  <advance width="870"/>
  <unicode hex="1F441"/>
  <outline>
    <contour>
      <point x="442" y="60" type="curve" smooth="yes"/>
      <point x="717" y="60"/>
      <point x="820" y="163"/>
      <point x="820" y="322" type="curve" smooth="yes"/>
      <point x="820" y="432"/>
      <point x="721" y="561"/>
      <point x="439" y="561" type="curve" smooth="yes"/>
      <point x="131" y="561"/>
      <point x="50" y="457"/>
      <point x="50" y="319" type="curve" smooth="yes"/>
      <point x="50" y="175"/>
      <point x="172" y="60"/>
    </contour>
    <contour>
      <point x="425" y="245" type="curve" smooth="yes"/>
      <point x="477" y="245"/>
      <point x="506" y="274"/>
      <point x="506" y="316" type="curve" smooth="yes"/>
      <point x="506" y="355"/>
      <point x="463" y="386"/>
      <point x="408" y="386" type="curve" smooth="yes"/>
      <point x="357" y="386"/>
      <point x="332" y="358"/>
      <point x="332" y="320" type="curve" smooth="yes"/>
      <point x="332" y="275"/>
      <point x="361" y="245"/>
    </contour>
    <contour>
      <point x="432" y="144" type="curve" smooth="yes"/>
      <point x="220" y="144"/>
      <point x="145" y="227"/>
      <point x="145" y="321" type="curve" smooth="yes"/>
      <point x="145" y="402"/>
      <point x="209" y="484"/>
      <point x="428" y="484" type="curve" smooth="yes"/>
      <point x="593" y="484"/>
      <point x="715" y="415"/>
      <point x="715" y="313" type="curve" smooth="yes"/>
      <point x="715" y="181"/>
      <point x="623" y="144"/>
    </contour>
    <contour>
      <point x="158" y="481" type="curve"/>
      <point x="227" y="521" type="line"/>
      <point x="162" y="647"/>
      <point x="136" y="678"/>
      <point x="105" y="661" type="curve" smooth="yes"/>
      <point x="77" y="646"/>
      <point x="79" y="603"/>
    </contour>
    <contour>
      <point x="279" y="541" type="curve"/>
      <point x="357" y="550" type="line"/>
      <point x="329" y="720"/>
      <point x="315" y="765"/>
      <point x="281" y="760" type="curve" smooth="yes"/>
      <point x="248" y="755"/>
      <point x="232" y="718"/>
    </contour>
    <contour>
      <point x="412" y="545" type="curve"/>
      <point x="491" y="539" type="line"/>
      <point x="512" y="683"/>
      <point x="503" y="721"/>
      <point x="465" y="724" type="curve" smooth="yes"/>
      <point x="429" y="727"/>
      <point x="407" y="699"/>
    </contour>
    <contour>
      <point x="544" y="531" type="curve"/>
      <point x="621" y="511" type="line"/>
      <point x="669" y="646"/>
      <point x="678" y="707"/>
      <point x="641" y="718" type="curve" smooth="yes"/>
      <point x="608" y="728"/>
      <point x="585" y="704"/>
    </contour>
    <contour>
      <point x="668" y="485" type="curve"/>
      <point x="734" y="440" type="line"/>
      <point x="846" y="564"/>
      <point x="862" y="625"/>
      <point x="833" y="645" type="curve" smooth="yes"/>
      <point x="808" y="662"/>
      <point x="759" y="629"/>
    </contour>
    <contour>
      <point x="158" y="149" type="line"/>
      <point x="54" y="-5"/>
      <point x="51" y="-48"/>
      <point x="80" y="-64" type="curve" smooth="yes"/>
      <point x="113" y="-82"/>
      <point x="137" y="-62"/>
      <point x="227" y="109" type="curve"/>
    </contour>
    <contour>
      <point x="262" y="108" type="line"/>
      <point x="231" y="-54"/>
      <point x="244" y="-89"/>
      <point x="283" y="-91" type="curve" smooth="yes"/>
      <point x="321" y="-93"/>
      <point x="338" y="-54"/>
      <point x="340" y="103" type="curve"/>
    </contour>
    <contour>
      <point x="408" y="89" type="line"/>
      <point x="384" y="-83"/>
      <point x="398" y="-133"/>
      <point x="437" y="-135" type="curve" smooth="yes"/>
      <point x="476" y="-138"/>
      <point x="487" y="-94"/>
      <point x="487" y="86" type="curve"/>
    </contour>
    <contour>
      <point x="534" y="89" type="line"/>
      <point x="575" y="-108"/>
      <point x="600" y="-132"/>
      <point x="635" y="-123" type="curve" smooth="yes"/>
      <point x="668" y="-114"/>
      <point x="666" y="-64"/>
      <point x="611" y="109" type="curve"/>
    </contour>
    <contour>
      <point x="653" y="118" type="line"/>
      <point x="718" y="-45"/>
      <point x="753" y="-56"/>
      <point x="784" y="-39" type="curve" smooth="yes"/>
      <point x="814" y="-22"/>
      <point x="818" y="16"/>
      <point x="723" y="157" type="curve"/>
    </contour>
  </outline>
</glyph>
<glyph name="Q.ss01" format="2">
  <advance width="627"/>
  <anchor x="258" y="0" name="bottom"/>
  <anchor x="333" y="700" name="top"/>
  <outline>
    <contour>
      <point x="40" y="342" type="curve" smooth="yes"/>
      <point x="40" y="-92"/>
      <point x="312" y="57"/>
      <point x="426" y="-83" type="curve" smooth="yes"/>
      <point x="452" y="-115" type="line" smooth="yes"/>
      <point x="515" y="-192"/>
      <point x="591" y="-98"/>
      <point x="591" y="-28" type="curve" smooth="yes"/>
      <point x="591" y="85"/>
      <point x="424" y="-3"/>
      <point x="425" y="37" type="curve" smooth="yes"/>
      <point x="425" y="43"/>
      <point x="429" y="50"/>
      <point x="439" y="57" type="curve" smooth="yes"/>
      <point x="524" y="118"/>
      <point x="587" y="218"/>
      <point x="587" y="366" type="curve" smooth="yes"/>
      <point x="587" y="562"/>
      <point x="498" y="708"/>
      <point x="330" y="708" type="curve" smooth="yes"/>
      <point x="170" y="708"/>
      <point x="40" y="591"/>
    </contour>
    <contour>
      <point x="265" y="78" type="curve" smooth="yes"/>
      <point x="167" y="78"/>
      <point x="116" y="169"/>
      <point x="116" y="338" type="curve" smooth="yes"/>
      <point x="116" y="491"/>
      <point x="166" y="590"/>
      <point x="257" y="590" type="curve" smooth="yes"/>
      <point x="355" y="590"/>
      <point x="401" y="474"/>
      <point x="401" y="309" type="curve" smooth="yes"/>
      <point x="401" y="156"/>
      <point x="352" y="78"/>
    </contour>
    <contour>
      <point x="408" y="566" type="curve" smooth="yes"/>
      <point x="387" y="566"/>
      <point x="370" y="583"/>
      <point x="370" y="604" type="curve" smooth="yes"/>
      <point x="370" y="623"/>
      <point x="387" y="640"/>
      <point x="408" y="640" type="curve" smooth="yes"/>
      <point x="427" y="640"/>
      <point x="444" y="623"/>
      <point x="444" y="604" type="curve" smooth="yes"/>
      <point x="444" y="583"/>
      <point x="427" y="566"/>
    </contour>
    <contour>
      <point x="477" y="440" type="curve" smooth="yes"/>
      <point x="451" y="440"/>
      <point x="430" y="461"/>
      <point x="430" y="487" type="curve" smooth="yes"/>
      <point x="430" y="513"/>
      <point x="451" y="534"/>
      <point x="477" y="534" type="curve" smooth="yes"/>
      <point x="503" y="534"/>
      <point x="524" y="513"/>
      <point x="524" y="487" type="curve" smooth="yes"/>
      <point x="524" y="461"/>
      <point x="503" y="440"/>
    </contour>
    <contour>
      <point x="504" y="312" type="curve" smooth="yes"/>
      <point x="482" y="312"/>
      <point x="465" y="329"/>
      <point x="465" y="351" type="curve" smooth="yes"/>
      <point x="465" y="372"/>
      <point x="482" y="389"/>
      <point x="504" y="389" type="curve" smooth="yes"/>
      <point x="525" y="389"/>
      <point x="542" y="372"/>
      <point x="542" y="351" type="curve" smooth="yes"/>
      <point x="542" y="329"/>
      <point x="525" y="312"/>
    </contour>
    <contour>
      <point x="73" y="-13" type="curve" smooth="yes"/>
      <point x="260" y="161" type="line" smooth="yes"/>
      <point x="298" y="197"/>
      <point x="249" y="245"/>
      <point x="215" y="215" type="curve" smooth="yes"/>
      <point x="23" y="48" type="line" smooth="yes"/>
      <point x="-13" y="16"/>
      <point x="35" y="-49"/>
    </contour>
    <contour>
      <point x="461" y="124" type="curve" smooth="yes"/>
      <point x="448" y="149" type="line" smooth="yes"/>
      <point x="437" y="171"/>
      <point x="394" y="152"/>
      <point x="404" y="128" type="curve" smooth="yes"/>
      <point x="415" y="101" type="line" smooth="yes"/>
      <point x="430" y="65"/>
      <point x="478" y="92"/>
    </contour>
    <contour>
      <point x="82" y="421" type="curve" smooth="yes"/>
      <point x="198" y="367" type="line" smooth="yes"/>
      <point x="243" y="346"/>
      <point x="272" y="402"/>
      <point x="228" y="428" type="curve" smooth="yes"/>
      <point x="117" y="493" type="line" smooth="yes"/>
      <point x="76" y="517"/>
      <point x="38" y="441"/>
    </contour>
  </outline>
</glyph>
<glyph name="acutecomb.case" format="2">
  <anchor x="110" y="700" name="_top"/>
  <outline>
    <contour>
      <point x="144" y="764" type="curve" smooth="yes"/>
      <point x="185" y="800"/>
      <point x="222" y="838"/>
      <point x="257" y="876" type="curve" smooth="yes"/>
      <point x="290" y="911"/>
      <point x="298" y="949"/>
      <point x="265" y="975" type="curve" smooth="yes"/>
      <point x="233" y="1000"/>
      <point x="195" y="986"/>
      <point x="174" y="953" type="curve" smooth="yes"/>
      <point x="144" y="907"/>
      <point x="115" y="860"/>
      <point x="89" y="814" type="curve" smooth="yes"/>
      <point x="73" y="786"/>
      <point x="71" y="761"/>
      <point x="89" y="749" type="curve" smooth="yes"/>
      <point x="106" y="738"/>
      <point x="123" y="745"/>
    </contour>
  </outline>
</glyph>
<glyph name="brevecomb.case" format="2">
  <anchor x="193" y="700" name="_top"/>
  <outline>
    <contour>
      <point x="185" y="751" type="curve" smooth="yes"/>
      <point x="269" y="751"/>
      <point x="329" y="778"/>
      <point x="358" y="865" type="curve" smooth="yes"/>
      <point x="369" y="900"/>
      <point x="367" y="930"/>
      <point x="334" y="940" type="curve" smooth="yes"/>
      <point x="298" y="950"/>
      <point x="278" y="931"/>
      <point x="268" y="892" type="curve" smooth="yes"/>
      <point x="257" y="848"/>
      <point x="237" y="822"/>
      <point x="191" y="822" type="curve" smooth="yes"/>
      <point x="151" y="822"/>
      <point x="123" y="845"/>
      <point x="116" y="891" type="curve" smooth="yes"/>
      <point x="109" y="939"/>
      <point x="87" y="953"/>
      <point x="57" y="948" type="curve" smooth="yes"/>
      <point x="27" y="942"/>
      <point x="13" y="914"/>
      <point x="24" y="869" type="curve" smooth="yes"/>
      <point x="40" y="799"/>
      <point x="96" y="751"/>
    </contour>
  </outline>
</glyph>
<glyph name="circumflexcomb.case.alt1" format="2">
  <anchor x="212" y="700" name="_top"/>
  <outline>
    <contour>
      <point x="106" y="754" type="curve" smooth="yes"/>
      <point x="133" y="776"/>
      <point x="165" y="806"/>
      <point x="185" y="821" type="curve" smooth="yes"/>
      <point x="199" y="832"/>
      <point x="212" y="830"/>
      <point x="223" y="820" type="curve" smooth="yes"/>
      <point x="247" y="799"/>
      <point x="284" y="759"/>
      <point x="319" y="725" type="curve" smooth="yes"/>
      <point x="355" y="690"/>
      <point x="407" y="731"/>
      <point x="371" y="775" type="curve" smooth="yes"/>
      <point x="341" y="812"/>
      <point x="307" y="852"/>
      <point x="275" y="885" type="curve" smooth="yes"/>
      <point x="241" y="920"/>
      <point x="193" y="924"/>
      <point x="144" y="894" type="curve" smooth="yes"/>
      <point x="114" y="875"/>
      <point x="81" y="853"/>
      <point x="51" y="829" type="curve" smooth="yes"/>
      <point x="-17" y="775"/>
      <point x="50" y="708"/>
    </contour>
  </outline>
</glyph>
<glyph name="circumflexcomb.case" format="2">
  <anchor x="214" y="700" name="_top"/>
  <outline>
    <contour>
      <point x="104" y="740" type="curve" smooth="yes"/>
      <point x="145" y="768"/>
      <point x="185" y="796"/>
      <point x="221" y="818" type="curve" smooth="yes"/>
      <point x="238" y="828"/>
      <point x="252" y="826"/>
      <point x="262" y="816" type="curve" smooth="yes"/>
      <point x="277" y="800"/>
      <point x="290" y="781"/>
      <point x="307" y="763" type="curve" smooth="yes"/>
      <point x="325" y="744"/>
      <point x="344" y="738"/>
      <point x="361" y="750" type="curve" smooth="yes"/>
      <point x="380" y="763"/>
      <point x="382" y="793"/>
      <point x="363" y="814" type="curve" smooth="yes"/>
      <point x="343" y="837"/>
      <point x="298" y="884"/>
      <point x="265" y="916" type="curve" smooth="yes"/>
      <point x="246" y="934"/>
      <point x="206" y="935"/>
      <point x="179" y="910" type="curve" smooth="yes"/>
      <point x="144" y="877"/>
      <point x="94" y="827"/>
      <point x="64" y="794" type="curve" smooth="yes"/>
      <point x="41" y="768"/>
      <point x="35" y="750"/>
      <point x="49" y="733" type="curve" smooth="yes"/>
      <point x="61" y="719"/>
      <point x="82" y="725"/>
    </contour>
  </outline>
</glyph>
